<svg xmlns="http://www.w3.org/2000/svg" viewBox="0 0 300 300">
   <circle cx="150" cy="150" r="150" fill="#121212"/>
   <path d="M150 247.21c-1.61 0-3.25-.05-4.89-.13a6.22 6.22 0 01-6-5.79l-5.23-88.09a11.85 11.85 0 012.91-8.53l10.24-11.79a3.89 3.89 0 015.86 0l10.27 11.79a11.86 11.86 0 012.91 8.54l-5.22 88.08a6.24 6.24 0 01-6 5.79c-1.58.08-3.23.13-4.85.13z" fill="#fff"/>
   <path d="M150 131.59a3.84 3.84 0 012.9 1.32l10.27 11.78a11.8 11.8 0 012.9 8.52l-5.22 88.07a6.19 6.19 0 01-5.92 5.76c-1.66.09-3.32.13-4.93.13s-3.25 0-4.89-.13a6.2 6.2 0 01-5.93-5.75L134 153.2a11.79 11.79 0 012.9-8.51l10.24-11.78a3.84 3.84 0 012.9-1.32m0-.08a3.88 3.88 0 00-2.95 1.35l-10.29 11.78a12 12 0 00-2.92 8.56l5.23 88.09a6.25 6.25 0 006 5.83c1.62.08 3.26.13 4.9.13s3.3-.05 4.93-.14a6.24 6.24 0 006-5.82l5.23-88.08a12 12 0 00-2.92-8.57L153 132.86a3.9 3.9 0 00-3-1.35z"/>
   <path d="M175.23 52.91l-.6-.15c.34.07.65.15 1 .24z" fill="#fff"/>
   <path d="M174.62 52.79l1.78.46a6.07 6.07 0 00-1.78-.46z"/>
   <path d="M245.17 122.06c.15.53.27 1.06.41 1.59a5.82 5.82 0 00-.41-1.59z" fill="#fff"/>
   <path d="M245.17 122.06c.15.53.27 1.06.41 1.59a5.82 5.82 0 00-.41-1.59z"/>
   <path d="M54.79 174.63c-.13-.48-.25-1-.37-1.45a6.06 6.06 0 00.37 1.45z" fill="#fff"/>
   <path d="M54.42 173.18a6.06 6.06 0 00.37 1.45c-.13-.48-.25-1-.37-1.45z"/>
   <path d="M54.42 123.65c.14-.53.26-1.06.41-1.59a5.82 5.82 0 00-.41 1.59z" fill="#fff"/>
   <path d="M54.83 122.06a5.82 5.82 0 00-.41 1.59c.14-.53.26-1.06.41-1.59zM125.38 52.79a6.07 6.07 0 00-1.78.46l1.78-.46z"/>
   <path d="M80.37 218.55a6.2 6.2 0 01-1-1.09 14.12 14.12 0 001 1.09z" fill="#fff"/>
   <path d="M79.37 217.48a6.11 6.11 0 001.5 1.5c-.51-.49-1-1-1.5-1.5z"/>
   <path d="M79.33 79.34a6.2 6.2 0 012-1.83c-.73.57-1.33 1.2-2 1.83z" fill="#fff"/>
   <path d="M80.54 78.07l-.84.85a6.75 6.75 0 01.84-.85m.72-.59a6.07 6.07 0 00-2.15 2.15c.7-.73 1.42-1.44 2.15-2.15z"/>
   <path d="M220.67 79.34c-.63-.64-1.26-1.26-1.9-1.89a7.58 7.58 0 011.9 1.89z" fill="#fff"/>
   <path d="M219.45 78.07a6.21 6.21 0 01.85.85c-.28-.28-.56-.57-.85-.85m-.71-.59c.73.71 1.44 1.42 2.15 2.15a6 6 0 00-2.15-2.15z"/>
   <path d="M219.63 218.54l1-1a9 9 0 01-1 1z" fill="#fff"/>
   <path d="M220.62 217.49c-.49.5-1 1-1.49 1.49a6 6 0 001.49-1.49z"/>
   <path d="M245.58 173.18c-.13.48-.24 1-.37 1.45a6.06 6.06 0 00.37-1.45z" fill="#fff"/>
   <path d="M245.58 173.18c-.13.48-.24 1-.37 1.45a6.06 6.06 0 00.37-1.45z"/>
   <path d="M215.67 220.07a6.22 6.22 0 01-1.35-.16l-30.53-3.31a2.79 2.79 0 01-2.51-3c1-11 5.61-51.7 7.55-68.69a11.8 11.8 0 00-3.77-10l-29.85-27.23a7.71 7.71 0 00-10.42 0l-29.9 27.24a11.75 11.75 0 00-3.77 10c1.95 17 6.59 57.58 7.6 68.68a2.79 2.79 0 01-2.51 3l-30.53 3.31a6.22 6.22 0 01-1.35.16 5.93 5.93 0 01-3.44-1.07c-.5-.49-1-1-1.49-1.49a5.91 5.91 0 01-.93-4.76l4.32-18.46a8.94 8.94 0 00-6.11-10.59l-18.15-5.49a5.79 5.79 0 01-3.7-3.54c-.09-.31-.16-.62-.24-.93l-.13-.52a5.8 5.8 0 011.43-4.86l13-13.82a9 9 0 000-12.23l-13-13.82a5.81 5.81 0 01-1.43-4.79l.14-.57c.09-.33.17-.67.26-1a5.83 5.83 0 013.67-3.48l18.15-5.48a9 9 0 006.11-10.6l-4.32-18.51a5.91 5.91 0 01.67-4.41c.7-.72 1.42-1.43 2.15-2.14a5.82 5.82 0 014.39-.66l18.45 4.32a8.9 8.9 0 002.05.24 9 9 0 008.55-6.36l5.48-18.14a5.8 5.8 0 013.41-3.62l1.15-.31.62-.15h.75a5.52 5.52 0 013.92 1.48l13.82 13a8.95 8.95 0 0012.24 0l13.82-13a5.52 5.52 0 013.92-1.48h.76l.59.15 1.18.31a5.81 5.81 0 013.4 3.62l5.48 18.14a9 9 0 008.55 6.36 8.82 8.82 0 002-.24l18.46-4.32a5.84 5.84 0 014.4.66c.72.7 1.44 1.42 2.15 2.15a6 6 0 01.66 4.4l-4.32 18.45a9 9 0 006.11 10.6l18.15 5.48a5.81 5.81 0 013.67 3.49c.09.33.17.66.26 1l.14.58a5.8 5.8 0 01-1.43 4.78l-13 13.82a9 9 0 000 12.23l13 13.82a5.81 5.81 0 011.43 4.86l-.14.57c-.08.29-.15.59-.23.88a5.79 5.79 0 01-3.7 3.54l-18.15 5.49a8.94 8.94 0 00-6.11 10.59l4.32 18.46a5.9 5.9 0 01-.94 4.77l-1.48 1.48a5.93 5.93 0 01-3.4 1.12z" fill="#e49f25"/>
   <path d="M173.86 52.75v.08a6 6 0 01.74 0l.6.15 1.17.3a5.77 5.77 0 013.38 3.6l5.48 18.14a9 9 0 008.59 6.38 9.4 9.4 0 002.05-.23l18.46-4.33a6.4 6.4 0 011.37-.16 5.92 5.92 0 013 .82c.73.71 1.45 1.43 2.14 2.13a5.92 5.92 0 01.66 4.38l-4.32 18.45a9 9 0 006.14 10.64l18.15 5.49a5.78 5.78 0 013.64 3.45c.09.33.17.66.26 1l.15.59a5.79 5.79 0 01-1.43 4.75l-13 13.82a9 9 0 000 12.29l13 13.82a5.79 5.79 0 011.43 4.82c0 .18-.1.36-.14.55s-.15.6-.23.89a5.81 5.81 0 01-3.68 3.53l-18.15 5.48a9 9 0 00-6.14 10.64l4.32 18.46a5.8 5.8 0 01-.92 4.72c-.56.58-1 1-1.48 1.49a6 6 0 01-3.42 1.11 6.3 6.3 0 01-1.35-.16l-30.53-3.31a2.75 2.75 0 01-2.47-3c1-11.08 5.61-51.73 7.54-68.69a11.77 11.77 0 00-3.77-10l-29.85-27.24a7.79 7.79 0 00-10.48 0l-29.89 27.24a11.8 11.8 0 00-3.79 10c2 17 6.6 57.61 7.6 68.68a2.75 2.75 0 01-2.48 3l-30.53 3.31a6.13 6.13 0 01-1.34.16 6 6 0 01-3.41-1.1c-.44-.43-.91-.91-1.48-1.49a5.8 5.8 0 01-.93-4.73l4.32-18.46a9 9 0 00-6.14-10.64l-18.15-5.48a5.78 5.78 0 01-3.67-3.52c-.09-.31-.17-.62-.25-.93l-.12-.51a5.76 5.76 0 011.42-4.83l13-13.82a9 9 0 000-12.29l-13-13.82a5.79 5.79 0 01-1.43-4.75l.15-.58c.08-.33.17-.67.26-1a5.77 5.77 0 013.64-3.46l18.15-5.49a9 9 0 006.14-10.64l-4.33-18.4a5.89 5.89 0 01.65-4.37c.69-.71 1.42-1.43 2.14-2.13a5.89 5.89 0 013-.83 6.4 6.4 0 011.37.16l18.46 4.33a9.4 9.4 0 002.05.23 9 9 0 008.59-6.38l5.48-18.14a5.78 5.78 0 013.37-3.6l1.17-.3.59-.15a6.56 6.56 0 01.76 0A5.44 5.44 0 01130 54.3l13.83 13a9 9 0 0012.28 0l13.89-13a5.48 5.48 0 013.9-1.47v-.08m0 0a5.61 5.61 0 00-4 1.49l-13.82 13a8.9 8.9 0 01-12.18 0l-13.82-13a5.61 5.61 0 00-4-1.49h-.76l-1.78.46a5.81 5.81 0 00-3.42 3.65L114.69 75a8.87 8.87 0 01-10.55 6.09l-18.45-4.28a6.12 6.12 0 00-1.39-.16 6 6 0 00-3 .83c-.73.71-1.45 1.42-2.15 2.15a6 6 0 00-.68 4.43l4.33 18.46a8.91 8.91 0 01-6.09 10.55l-18.15 5.48a5.84 5.84 0 00-3.69 3.51c-.15.53-.27 1.06-.41 1.59a5.82 5.82 0 001.44 4.81l13 13.83a8.91 8.91 0 010 12.18l-13 13.82a5.85 5.85 0 00-1.44 4.89c.12.48.24 1 .37 1.45a5.87 5.87 0 003.73 3.57l18.15 5.48a8.91 8.91 0 016.09 10.55l-4.33 18.46a5.92 5.92 0 00.94 4.79c.5.51 1 1 1.5 1.5a6 6 0 003.46 1.12 5.86 5.86 0 001.36-.16l30.52-3.3a2.84 2.84 0 002.55-3.08c-1-11.2-5.8-53.06-7.6-68.69a11.66 11.66 0 013.76-10l29.89-27.24a7.69 7.69 0 0110.37 0L185 134.9a11.67 11.67 0 013.76 10c-1.78 15.62-6.54 57.5-7.55 68.7a2.84 2.84 0 002.55 3.08l30.52 3.3a5.86 5.86 0 001.36.16 6 6 0 003.46-1.12c.51-.49 1-1 1.49-1.49a6 6 0 00.95-4.8l-4.33-18.46a8.91 8.91 0 016.1-10.55l18.14-5.48a5.87 5.87 0 003.73-3.57c.13-.48.24-1 .37-1.45a5.85 5.85 0 00-1.44-4.89l-13-13.82a8.91 8.91 0 010-12.18l13-13.83a5.82 5.82 0 001.44-4.81c-.14-.53-.26-1.06-.41-1.59a5.84 5.84 0 00-3.69-3.51l-18.14-5.48a8.91 8.91 0 01-6.1-10.55l4.33-18.46a6 6 0 00-.68-4.43c-.71-.73-1.42-1.44-2.15-2.15a6 6 0 00-3-.83 6.12 6.12 0 00-1.39.16l-18.45 4.32a9 9 0 01-2 .24 8.89 8.89 0 01-8.56-6.41l-5.49-18.1a5.81 5.81 0 00-3.42-3.65l-1.78-.46h-.76z"/>
</svg>