<?xml version="1.0" standalone="no"?>
<!DOCTYPE svg PUBLIC "-//W3C//DTD SVG 20010904//EN"
 "http://www.w3.org/TR/2001/REC-SVG-20010904/DTD/svg10.dtd">
<svg version="1.0" xmlns="http://www.w3.org/2000/svg"
 width="1080.000000pt" height="1080.000000pt" viewBox="0 0 1080.000000 1080.000000"
 preserveAspectRatio="xMidYMid meet">
<metadata>
Created by potrace 1.14, written by Peter Selinger 2001-2017
</metadata>
<g transform="translate(0.000000,1080.000000) scale(0.100000,-0.100000)"
fill="#000000" stroke="none">
<path d="M7138 10796 c-1 -2 -41 -6 -88 -10 -47 -4 -112 -11 -145 -16 -33 -5
-78 -11 -100 -15 -207 -30 -578 -132 -730 -200 -16 -8 -59 -26 -95 -41 -276
-113 -616 -326 -869 -542 -76 -65 -284 -271 -351 -347 -269 -306 -491 -678
-635 -1065 -71 -192 -150 -485 -170 -630 -3 -25 -8 -56 -10 -70 -12 -65 -18
-117 -31 -265 -5 -60 -5 -422 1 -485 2 -30 7 -75 10 -100 3 -25 7 -65 10 -90
28 -249 114 -574 218 -830 115 -282 194 -435 348 -673 l40 -61 -392 -392 -392
-393 -46 23 c-185 94 -221 103 -401 101 -240 -2 -218 18 -1655 -1421 -1287
-1289 -1420 -1426 -1548 -1594 -85 -111 -99 -156 -98 -318 2 -276 31 -321 507
-796 505 -505 578 -556 794 -561 103 -3 241 20 305 51 111 52 200 137 1410
1344 1456 1452 1561 1562 1641 1726 27 56 29 67 30 194 2 161 -7 203 -74 337
l-49 97 387 388 c214 214 393 388 400 388 6 0 76 -41 155 -90 199 -125 479
-262 645 -316 25 -8 54 -19 65 -24 11 -5 54 -19 95 -30 41 -12 93 -28 115 -35
36 -12 224 -56 300 -70 37 -7 213 -31 315 -44 76 -9 566 -8 630 2 19 3 59 8
88 11 81 9 117 15 222 32 402 68 908 275 1286 525 328 218 685 574 926 924 46
67 150 237 190 310 77 140 182 382 233 540 31 96 48 154 62 205 21 80 61 268
68 320 3 25 8 56 11 70 30 158 36 714 9 925 -13 102 -48 280 -76 385 -17 63
-35 131 -40 150 -14 58 -78 238 -125 353 -345 844 -1020 1516 -1879 1872 -165
68 -412 145 -581 180 -97 20 -215 40 -304 50 -30 4 -68 9 -85 11 -34 6 -541
14 -547 10z m577 -589 c11 -2 46 -8 79 -12 161 -19 429 -97 652 -188 375 -154
644 -335 944 -636 306 -307 522 -647 668 -1051 27 -75 78 -238 87 -280 21 -99
45 -223 50 -255 3 -22 7 -51 10 -65 27 -148 27 -508 0 -720 -47 -369 -174
-750 -356 -1069 -202 -351 -469 -651 -794 -891 -72 -54 -238 -161 -325 -210
-267 -151 -693 -293 -975 -324 -232 -26 -671 -27 -818 -1 -15 3 -55 10 -90 16
-146 25 -424 104 -542 154 -141 60 -195 84 -295 137 -275 144 -548 355 -781
604 -253 272 -480 658 -603 1026 -27 80 -82 282 -91 333 -2 17 -7 39 -9 50 -2
11 -7 40 -11 65 -4 25 -9 53 -10 62 -4 18 -16 139 -21 208 -5 68 -4 348 1 405
6 64 22 199 31 255 3 23 17 94 28 149 26 123 128 446 147 466 5 5 9 15 9 21 0
20 103 232 160 329 134 228 261 389 468 596 151 150 266 250 368 321 289 201
635 359 969 441 167 42 232 52 385 63 52 4 96 8 98 9 6 5 545 -3 567 -8z"/>
<path d="M6366 9182 c-3 -5 -4 -27 -3 -50 2 -24 -2 -42 -8 -42 -5 0 -3 -5 5
-10 8 -5 11 -10 5 -10 -5 0 -3 -4 5 -10 9 -5 19 -5 27 2 8 6 13 6 13 1 0 -13
32 -13 48 0 7 6 12 6 12 0 0 -13 33 -12 43 1 5 8 10 7 16 -2 4 -8 12 -14 16
-14 4 0 12 6 16 14 5 7 9 8 9 2 0 -13 31 -14 48 -1 6 5 12 6 12 1 0 -13 313
-11 323 1 4 7 10 7 15 0 7 -11 103 -15 97 -5 -5 9 27 6 42 -3 7 -5 22 -3 34 4
12 6 19 7 16 2 -6 -10 185 -9 202 1 6 4 11 3 11 -2 0 -12 32 -12 48 1 7 6 12
6 12 0 0 -13 33 -12 43 1 5 8 10 7 16 -2 4 -8 12 -14 16 -14 4 0 12 6 16 14 5
7 9 8 9 2 0 -13 31 -14 48 -1 6 5 12 6 12 1 0 -13 313 -11 323 1 4 7 10 7 15
0 7 -11 103 -15 97 -5 -2 4 2 7 10 7 8 0 15 -4 15 -8 0 -9 42 -5 60 6 7 5 11
4 7 -1 -3 -5 47 -9 121 -8 106 1 127 4 138 19 7 9 11 22 8 28 -2 7 -5 28 -7
47 l-3 35 -1001 3 c-551 1 -1004 -2 -1007 -6z"/>
<path d="M6476 9002 c-3 -5 -29 -8 -59 -6 l-54 2 2 -36 c0 -20 -3 -43 -8 -49
-5 -7 -6 -13 -1 -13 5 0 10 -35 11 -78 3 -154 7 -212 14 -212 4 0 6 -14 5 -31
-1 -16 1 -32 4 -34 4 -2 6 -20 5 -39 -1 -20 1 -36 5 -36 4 0 7 -6 7 -12 0 -18
11 -80 22 -128 5 -22 7 -40 4 -40 -3 0 -1 -6 4 -12 6 -7 14 -26 18 -43 5 -16
10 -37 12 -45 2 -8 5 -21 5 -27 1 -7 4 -13 7 -13 4 0 8 -12 9 -27 1 -16 7 -29
12 -31 6 -2 10 -12 10 -23 0 -11 4 -27 9 -37 23 -43 55 -118 53 -124 -1 -5 3
-8 8 -8 6 0 10 -11 10 -23 0 -13 9 -32 20 -42 11 -10 20 -22 20 -28 0 -5 9
-22 21 -38 11 -16 17 -29 12 -29 -4 0 0 -5 10 -11 9 -5 17 -14 17 -19 0 -6 9
-20 20 -32 10 -13 19 -25 18 -28 0 -3 16 -23 36 -44 20 -22 36 -44 36 -48 0
-4 6 -8 13 -8 8 0 19 -10 26 -22 7 -13 30 -36 52 -51 21 -16 39 -33 39 -38 0
-5 4 -9 10 -9 21 0 96 -56 92 -69 -3 -10 0 -11 9 -5 10 6 9 1 -2 -16 -9 -14
-20 -23 -24 -22 -5 2 -12 -3 -17 -12 -5 -9 -13 -16 -18 -16 -9 0 -18 -6 -72
-52 -12 -10 -25 -18 -30 -18 -5 0 -6 -4 -3 -10 3 -5 -1 -10 -10 -10 -9 0 -13
-4 -10 -10 3 -5 1 -10 -5 -10 -12 0 -40 -24 -40 -34 0 -4 -16 -22 -36 -41 -20
-19 -32 -35 -28 -35 4 0 -1 -9 -12 -20 -31 -31 -44 -49 -44 -59 0 -5 -4 -11
-8 -13 -10 -4 -84 -134 -82 -144 1 -4 -2 -10 -7 -13 -7 -5 -32 -52 -38 -71 -1
-3 -7 -18 -13 -33 -7 -16 -12 -35 -12 -43 0 -9 -5 -12 -12 -8 -7 5 -9 2 -5 -8
3 -9 0 -21 -6 -27 -6 -6 -8 -11 -4 -11 4 0 -1 -15 -11 -32 -10 -18 -17 -43
-16 -55 1 -13 -3 -23 -8 -23 -5 0 -6 -4 -3 -10 3 -5 2 -10 -3 -10 -5 0 -12
-22 -16 -50 -4 -27 -12 -50 -18 -50 -7 0 -7 -4 1 -14 8 -9 8 -15 2 -18 -10 -3
-22 -66 -22 -110 0 -10 -4 -20 -9 -23 -5 -3 -7 -17 -4 -31 3 -14 1 -23 -3 -21
-4 3 -9 -14 -10 -36 -1 -23 -5 -71 -9 -107 -3 -36 -7 -120 -8 -187 0 -74 -5
-123 -11 -123 -5 0 -4 -4 3 -9 7 -4 116 -7 242 -7 127 1 230 -3 230 -7 0 -5 6
-5 13 0 16 10 107 10 107 0 0 -5 5 -5 12 -1 17 11 708 11 708 0 0 -5 6 -4 13
1 6 4 165 8 352 7 l341 -1 2 26 c2 43 2 52 -3 166 -6 121 -8 141 -17 151 -4 3
-3 17 2 29 6 16 5 25 -3 29 -9 3 -9 7 1 14 11 8 11 10 0 14 -8 3 -13 19 -12
39 1 19 -1 38 -4 44 -3 5 -7 16 -8 25 -11 69 -15 92 -23 112 -4 13 -7 31 -6
41 2 9 0 17 -4 17 -4 0 -8 8 -9 18 -3 30 -7 47 -15 59 -4 6 -8 23 -9 37 -1 14
-5 26 -9 26 -3 0 -6 6 -7 13 -1 22 -55 162 -64 165 -4 2 -6 8 -2 13 3 5 0 9
-5 9 -6 0 -10 3 -9 8 4 10 -43 106 -56 114 -6 4 -7 8 -2 8 5 0 2 8 -7 18 -8 9
-17 24 -19 32 -2 8 -12 23 -22 33 -10 9 -16 17 -12 17 4 0 -2 10 -14 22 -11
12 -20 28 -20 35 0 8 -4 12 -8 9 -4 -3 -16 11 -26 29 -11 19 -23 32 -27 29 -5
-3 -9 0 -9 6 0 6 -29 40 -65 75 -36 36 -65 63 -65 60 0 -3 -6 -1 -12 5 -56 46
-75 60 -85 60 -7 0 -13 5 -13 11 0 5 -4 7 -10 4 -16 -10 -12 41 5 55 8 7 15 9
15 6 0 -4 12 5 27 19 15 14 31 25 35 25 18 0 144 120 194 185 21 27 47 59 57
69 9 11 17 24 17 28 0 5 9 18 20 30 10 12 17 25 14 30 -3 4 0 8 7 8 7 0 9 3 6
6 -4 4 3 15 14 25 11 9 21 21 21 26 3 22 32 83 39 83 5 0 6 7 3 15 -4 8 1 17
10 21 9 3 14 9 11 13 -2 4 2 20 10 34 8 15 14 29 15 30 6 17 11 44 10 51 -1 5
3 12 9 15 6 4 12 19 13 34 1 15 6 27 11 27 4 0 6 4 2 9 -3 5 -1 12 5 16 6 4 8
11 5 16 -4 5 -1 9 5 9 6 0 8 5 5 10 -4 6 0 24 9 40 8 17 10 30 5 30 -6 0 -5 9
2 21 6 12 13 31 14 43 4 21 14 76 20 106 2 8 4 15 5 15 2 0 10 83 11 108 0 9
5 17 11 17 7 0 7 4 -1 13 -6 8 -8 17 -4 20 8 9 11 50 17 224 4 115 2 141 -9
137 -7 -3 -16 0 -20 5 -3 6 -11 9 -16 5 -19 -11 -58 -14 -64 -4 -4 6 -12 7
-18 3 -19 -12 -37 -12 -37 -2 0 6 -5 7 -12 3 -18 -12 -78 -11 -78 0 0 7 -3 8
-8 1 -10 -14 -102 -15 -102 -1 0 6 -4 5 -9 -3 -6 -9 -11 -10 -15 -2 -5 8 -13
8 -26 1 -13 -7 -21 -7 -25 0 -4 7 -12 7 -18 2 -15 -10 -97 -9 -114 1 -7 5 -13
5 -13 0 0 -7 -60 -9 -85 -3 -5 1 -14 1 -20 0 -38 -8 -45 -8 -45 3 0 8 -3 8 -8
2 -10 -14 -102 -15 -102 -1 0 6 -4 5 -9 -3 -6 -9 -11 -10 -15 -2 -5 8 -13 8
-26 1 -13 -7 -21 -7 -25 0 -4 6 -12 7 -18 3 -17 -10 -107 -10 -107 0 0 4 -5 5
-11 1 -18 -11 -89 -13 -95 -3 -3 5 -10 7 -15 4 -19 -12 -49 -13 -49 -2 0 8 -3
8 -8 2 -10 -14 -102 -15 -102 -1 0 6 -4 5 -9 -3 -6 -9 -11 -10 -15 -2 -5 8
-13 8 -26 1 -13 -7 -21 -7 -25 0 -4 6 -12 7 -18 3 -17 -10 -107 -10 -107 0 0
4 -5 5 -11 1 -18 -11 -89 -13 -95 -3 -3 5 -10 7 -15 4 -19 -12 -49 -13 -49 -2
0 8 -3 8 -8 2 -10 -14 -95 -14 -104 -1 -5 7 -8 6 -8 -3 0 -10 -3 -11 -13 -3
-8 7 -18 7 -27 2 -9 -5 -19 -5 -26 1 -7 6 -15 6 -18 1z"/>
<path d="M6372 5642 c-7 -5 -10 -22 -8 -40 2 -18 -1 -32 -7 -32 -6 0 -6 -4 0
-12 6 -7 9 -21 8 -30 -3 -17 50 -18 1001 -18 l1004 0 6 24 c3 14 3 30 -1 36
-4 6 -2 17 4 24 21 26 -10 48 -72 50 -31 1 -57 -1 -57 -6 0 -4 -10 -4 -22 0
-28 10 -99 9 -116 -1 -6 -5 -12 -4 -12 0 0 5 -20 9 -45 8 -25 0 -45 -3 -45 -7
0 -4 -10 -4 -22 0 -28 10 -99 9 -116 -1 -6 -5 -12 -4 -12 0 0 5 -20 9 -45 8
-25 0 -45 -3 -45 -7 0 -4 -10 -4 -22 0 -27 10 -104 9 -114 -1 -4 -3 -14 -3
-23 1 -9 5 -27 7 -41 5 -14 -2 -36 -3 -50 -2 -87 5 -116 4 -127 -4 -8 -6 -13
-6 -13 0 0 5 -20 9 -45 8 -25 0 -45 -3 -45 -7 0 -4 -10 -4 -22 0 -28 10 -99 9
-116 -1 -6 -5 -12 -4 -12 0 0 5 -20 9 -45 8 -25 0 -45 -3 -45 -7 0 -4 -10 -4
-22 0 -20 7 -104 8 -118 2 -3 -1 -9 -1 -15 0 -25 6 -85 5 -85 -2 0 -4 -10 -4
-22 0 -20 7 -104 8 -118 2 -3 -1 -9 -1 -15 0 -25 6 -85 5 -85 -2 0 -4 -10 -4
-22 0 -28 10 -99 9 -116 -1 -7 -5 -12 -3 -12 4 0 9 -3 9 -14 0 -9 -8 -15 -8
-18 -2 -1 6 -9 7 -16 3z"/>
<path d="M680 10282 c0 -9 21 -91 46 -182 25 -91 51 -187 59 -215 7 -27 28
-99 45 -160 17 -60 40 -141 50 -180 11 -38 78 -275 150 -525 72 -250 133 -464
136 -475 2 -11 17 -60 32 -110 33 -104 -1 -84 287 -171 99 -29 194 -58 210
-63 45 -15 278 -83 290 -85 6 -1 37 -10 70 -20 209 -63 1129 -325 1132 -323 1
2 -13 64 -33 138 -20 74 -37 141 -39 149 -7 29 -164 586 -220 780 -32 107 -60
209 -65 225 -18 70 -147 506 -181 611 -18 57 -23 63 -57 72 -20 6 -66 19 -102
30 -407 125 -1608 469 -1737 497 -12 3 -34 10 -48 15 -21 8 -25 7 -25 -8z"/>
<path d="M4415 10190 c-16 -4 -133 -38 -260 -75 -126 -37 -237 -69 -245 -71
-8 -1 -85 -23 -170 -48 -85 -24 -283 -81 -440 -125 -429 -122 -393 -109 -385
-140 4 -14 8 -33 10 -41 2 -8 56 -195 120 -415 64 -220 118 -407 120 -415 1
-9 22 -81 45 -160 135 -465 189 -611 191 -519 2 93 101 435 197 679 42 107
172 382 225 476 140 249 323 501 536 739 72 80 106 125 94 124 -4 -1 -21 -4
-38 -9z"/>
<path d="M1209 8023 c-10 -26 -292 -984 -309 -1048 -4 -16 -51 -183 -104 -370
-136 -477 -156 -547 -156 -555 0 -3 39 -18 88 -33 99 -30 327 -97 357 -104 11
-3 41 -11 66 -19 25 -8 54 -16 65 -19 10 -2 143 -40 294 -84 333 -96 630 -180
650 -185 8 -3 49 -14 90 -26 41 -11 82 -23 90 -25 8 -2 62 -17 120 -33 58 -16
122 -32 142 -36 36 -7 38 -5 54 31 30 72 85 248 208 678 127 440 274 958 281
985 1 8 19 75 39 148 41 152 42 158 19 165 -10 2 -94 27 -188 55 -93 27 -285
82 -425 122 -140 39 -284 80 -320 90 -36 11 -171 48 -300 84 -285 79 -322 89
-335 92 -5 1 -86 24 -180 49 -93 26 -181 49 -194 52 -14 2 -28 6 -33 9 -4 3
-13 -7 -19 -23z"/>
<path d="M3314 6813 c-3 -15 -13 -53 -22 -83 -9 -30 -17 -60 -18 -66 -2 -10
-88 -313 -119 -419 -53 -180 -186 -644 -190 -662 -3 -12 -10 -34 -15 -47 -5
-14 -6 -28 -1 -30 7 -5 110 23 451 120 30 9 66 19 80 24 14 5 57 18 97 29 l72
21 -15 43 c-9 23 -17 49 -20 57 -2 8 -38 114 -78 235 -65 192 -143 478 -161
585 -3 19 -8 49 -12 65 -3 17 -7 37 -8 45 -15 101 -30 132 -41 83z"/>
<path d="M678 5725 c-3 -3 8 -54 24 -113 37 -139 127 -458 139 -497 5 -16 43
-147 85 -290 114 -393 280 -939 306 -1008 14 -37 44 -53 66 -35 28 22 206 195
567 553 448 444 635 627 718 699 58 51 67 64 67 93 0 45 -29 61 -200 117 -108
35 -894 264 -967 281 -10 3 -40 11 -68 19 -85 25 -159 46 -175 50 -8 2 -49 14
-90 26 -74 21 -137 38 -317 86 -89 23 -144 30 -155 19z"/>
<path d="M9852 4168 c-34 -24 -105 -74 -159 -112 -305 -214 -682 -406 -1057
-535 -150 -52 -447 -130 -573 -151 -42 -7 -73 -17 -73 -23 0 -7 8 -39 18 -72
22 -71 25 -72 152 -37 47 13 95 25 106 28 12 2 51 13 85 23 35 10 109 31 164
46 55 15 129 35 165 46 36 10 211 60 390 110 179 50 381 106 450 126 69 19
154 43 190 53 116 33 331 98 335 102 2 2 -20 100 -40 168 -15 54 -48 171 -57
205 -18 69 -27 71 -96 23z"/>
<path d="M5771 3491 c-14 -9 -39 -87 -137 -426 -41 -143 -84 -289 -95 -325
-10 -36 -21 -74 -24 -85 -2 -11 -15 -58 -29 -105 -94 -329 -271 -973 -282
-1028 -5 -25 2 -29 131 -67 44 -13 172 -51 285 -85 203 -61 675 -198 778 -226
29 -8 124 -34 210 -60 86 -25 164 -47 172 -49 8 -3 47 -13 85 -24 349 -98 322
-92 334 -77 13 15 35 77 60 166 11 41 52 188 91 325 39 138 73 258 75 268 4
19 49 173 65 222 5 17 20 71 34 120 13 50 51 185 84 300 138 482 162 585 139
603 -7 6 -75 29 -152 51 -77 23 -169 50 -205 61 -164 48 -252 74 -490 140
-140 40 -264 74 -275 76 -11 2 -31 8 -45 13 -14 5 -79 23 -145 41 -66 17 -127
34 -135 37 -8 3 -22 7 -31 9 -8 2 -42 11 -75 20 -91 24 -208 56 -219 58 -5 2
-30 8 -55 15 -25 7 -55 15 -67 17 -12 2 -33 8 -46 13 -13 5 -29 6 -36 2z"/>
<path d="M5356 3451 l-58 -17 -4 -97 c-6 -182 -16 -244 -55 -361 -37 -108
-126 -291 -175 -354 -53 -70 -329 -355 -916 -946 -289 -292 -525 -532 -523
-534 3 -3 347 91 395 108 23 9 103 31 125 35 6 2 35 10 65 19 30 9 134 39 230
66 96 28 198 58 225 66 28 9 57 17 65 19 8 2 52 15 97 29 l82 27 30 97 c60
196 218 737 226 772 1 8 17 65 35 125 18 61 34 117 35 125 2 8 4 15 5 15 1 0
3 7 5 15 2 8 26 96 54 195 29 99 54 188 56 199 2 10 12 44 21 75 10 31 18 61
20 66 1 6 18 70 37 143 l35 132 -26 -1 c-15 0 -53 -8 -86 -18z"/>
<path d="M9900 3439 c-36 -10 -76 -21 -90 -24 -22 -4 -150 -39 -295 -80 -27
-8 -93 -26 -145 -40 -52 -14 -117 -32 -145 -40 -81 -23 -807 -227 -840 -235
-133 -35 -311 -92 -321 -102 -17 -18 -56 -151 -369 -1248 -221 -778 -205 -710
-173 -710 13 0 39 5 58 11 19 5 42 12 50 14 23 5 174 47 540 152 184 53 349
99 365 103 66 17 626 180 634 184 4 3 18 7 32 10 85 17 252 72 259 86 7 13
111 374 406 1415 36 126 104 376 110 402 2 12 9 34 14 48 5 14 7 25 5 25 -2 0
0 11 5 25 8 22 7 25 -13 24 -12 0 -51 -9 -87 -20z"/>
</g>
</svg>
