<?xml version="1.0" standalone="no"?>
<!DOCTYPE svg PUBLIC "-//W3C//DTD SVG 20010904//EN"
 "http://www.w3.org/TR/2001/REC-SVG-20010904/DTD/svg10.dtd">
<svg version="1.0" xmlns="http://www.w3.org/2000/svg"
 width="1080.000000pt" height="1080.000000pt" viewBox="0 0 1080.000000 1080.000000"
 preserveAspectRatio="xMidYMid meet">
<metadata>
Created by potrace 1.14, written by Peter Selinger 2001-2017
</metadata>
<g transform="translate(0.000000,1080.000000) scale(0.100000,-0.100000)"
fill="#000000" stroke="none">
<path d="M7038 10795 c-1 -2 -30 -6 -63 -10 -60 -6 -94 -11 -150 -20 -16 -2
-46 -7 -65 -9 -19 -3 -46 -8 -60 -11 -22 -5 -64 -14 -95 -19 -5 -1 -16 -5 -22
-9 -7 -5 -13 -6 -13 -3 0 2 -48 -9 -107 -25 -60 -17 -115 -31 -123 -33 -9 -1
-21 -5 -28 -10 -6 -4 -16 -4 -22 -1 -5 3 -10 1 -10 -5 0 -6 -4 -8 -10 -5 -5 3
-10 1 -10 -5 0 -6 -4 -9 -8 -6 -5 3 -20 -1 -35 -9 -15 -8 -27 -11 -27 -8 0 3
-16 -5 -36 -16 -19 -12 -39 -19 -44 -16 -5 3 -11 1 -15 -5 -3 -5 -15 -10 -26
-10 -10 0 -19 -5 -19 -11 0 -6 -7 -8 -16 -5 -9 3 -27 -3 -41 -14 -14 -11 -29
-17 -34 -14 -5 3 -9 0 -9 -5 0 -6 -5 -11 -11 -11 -15 0 -102 -42 -110 -53 -3
-5 -9 -7 -12 -5 -9 5 -160 -75 -174 -92 -7 -8 -13 -11 -13 -7 0 5 -13 -1 -29
-12 -16 -12 -34 -21 -40 -21 -6 0 -11 -5 -11 -12 0 -6 -3 -9 -6 -5 -4 3 -12 1
-20 -6 -34 -30 -44 -37 -44 -30 0 4 -5 1 -10 -7 -5 -8 -14 -15 -20 -15 -6 0
-21 -8 -33 -18 -12 -9 -56 -42 -97 -72 -41 -31 -90 -68 -108 -83 -19 -15 -36
-25 -39 -22 -2 3 -11 -6 -18 -20 -7 -14 -16 -24 -19 -22 -7 2 -32 -19 -73 -60
-14 -16 -33 -28 -41 -28 -9 0 -13 -3 -9 -6 3 -4 -12 -21 -33 -39 -21 -18 -36
-35 -33 -39 4 -3 2 -6 -4 -6 -5 0 -37 -27 -70 -60 -33 -33 -58 -60 -55 -60 3
0 -13 -18 -36 -40 -23 -21 -42 -44 -42 -49 0 -5 -3 -11 -8 -13 -6 -3 -76 -85
-107 -126 -5 -7 -20 -24 -33 -37 -13 -14 -20 -25 -17 -25 6 0 -14 -28 -58 -80
-6 -8 -11 -18 -9 -23 1 -4 -5 -10 -13 -13 -8 -4 -15 -12 -15 -19 0 -7 -7 -18
-15 -25 -8 -7 -12 -16 -9 -21 3 -5 -2 -9 -10 -9 -10 0 -13 -6 -9 -17 3 -10 3
-15 -2 -11 -7 7 -23 -17 -56 -82 -7 -14 -19 -33 -27 -42 -9 -10 -12 -18 -8
-18 4 0 -2 -12 -13 -26 -12 -15 -21 -33 -21 -40 0 -8 -4 -14 -9 -14 -5 0 -12
-14 -16 -30 -4 -17 -11 -27 -17 -24 -6 4 -9 1 -6 -7 3 -8 -3 -25 -12 -39 -9
-14 -23 -42 -29 -62 -7 -21 -17 -40 -22 -44 -5 -3 -7 -10 -4 -15 4 -5 1 -9 -4
-9 -6 0 -11 -9 -11 -20 0 -11 -4 -20 -10 -20 -5 0 -9 -3 -8 -7 1 -5 -4 -24
-11 -43 -8 -19 -13 -38 -12 -42 0 -5 -3 -8 -7 -8 -4 0 -8 -8 -9 -17 -1 -10 -7
-31 -14 -48 -7 -16 -12 -33 -11 -37 1 -5 -3 -8 -9 -8 -6 0 -9 -6 -6 -14 3 -7
2 -17 -2 -22 -4 -5 -13 -29 -20 -54 -7 -25 -17 -55 -22 -68 -5 -13 -9 -32 -9
-42 0 -11 -4 -20 -8 -20 -4 0 -8 -8 -9 -17 -3 -40 -8 -63 -13 -63 -3 0 -6 -10
-6 -22 -1 -21 -9 -57 -28 -138 -4 -14 -9 -47 -12 -74 -3 -27 -10 -60 -15 -73
-4 -12 -6 -30 -3 -38 4 -8 2 -15 -3 -15 -5 0 -8 -15 -7 -32 1 -18 -2 -38 -7
-45 -7 -7 -6 -14 1 -18 6 -3 7 -11 3 -17 -7 -13 -12 -56 -17 -173 -2 -44 -5
-81 -6 -82 -5 -7 -3 -61 3 -76 3 -9 2 -17 -3 -17 -5 0 -8 -9 -7 -20 1 -11 6
-20 12 -20 5 0 3 -5 -5 -10 -11 -7 -11 -10 -2 -10 7 0 11 -4 7 -9 -8 -14 -13
-71 -6 -71 4 0 7 -19 6 -42 0 -24 3 -60 6 -80 4 -21 2 -38 -3 -38 -5 0 -4 -9
2 -21 7 -11 9 -23 6 -26 -3 -3 -1 -14 5 -24 7 -14 6 -19 -3 -19 -10 0 -10 -2
0 -9 8 -4 12 -14 11 -22 -4 -20 11 -128 22 -156 5 -15 5 -23 -2 -23 -6 0 -6
-7 1 -20 9 -18 17 -52 22 -107 1 -7 4 -13 7 -13 3 0 7 -11 8 -25 1 -14 4 -36
5 -50 1 -14 6 -25 11 -25 5 0 7 -9 4 -20 -3 -11 -1 -20 3 -20 5 0 7 -9 5 -20
-2 -11 0 -20 4 -20 4 0 8 -6 9 -12 1 -17 7 -39 16 -60 4 -9 9 -22 10 -30 8
-38 20 -74 28 -85 5 -7 7 -17 3 -23 -3 -5 -1 -10 4 -10 6 0 10 -3 9 -7 0 -5 2
-15 5 -23 21 -48 35 -99 29 -106 -4 -4 -1 -4 6 0 11 6 17 -11 13 -36 0 -5 4
-8 9 -8 5 0 9 -3 8 -7 -1 -8 15 -50 33 -85 5 -10 9 -25 9 -33 0 -8 5 -15 11
-15 5 0 7 -4 4 -10 -3 -5 -1 -10 4 -10 6 0 10 -3 9 -7 -3 -13 36 -93 45 -93 4
0 5 -4 2 -10 -3 -5 -1 -10 4 -10 6 0 10 -3 9 -7 -3 -11 34 -87 46 -95 7 -5 7
-8 1 -8 -7 0 -7 -3 0 -8 6 -4 21 -27 34 -52 14 -25 29 -48 35 -52 6 -4 7 -8 3
-8 -5 0 -2 -7 5 -15 23 -26 33 -40 36 -55 2 -8 9 -18 17 -22 7 -4 16 -19 19
-33 4 -14 11 -25 17 -25 6 0 7 -4 4 -10 -3 -6 -2 -10 3 -10 6 0 8 -9 5 -20 -3
-11 -8 -19 -12 -17 -6 2 -104 -93 -108 -106 -2 -4 -6 -7 -9 -6 -3 0 -18 -16
-33 -35 -16 -20 -31 -33 -35 -29 -3 3 -6 -2 -6 -12 0 -10 -3 -15 -6 -12 -4 4
-20 -10 -35 -30 -16 -20 -29 -32 -29 -27 0 5 -9 -4 -20 -21 -11 -16 -20 -26
-20 -22 0 4 -11 -4 -25 -19 -14 -15 -25 -32 -25 -37 0 -6 -3 -7 -6 -4 -4 4
-20 -10 -35 -30 -16 -20 -29 -34 -29 -31 0 3 -37 -32 -83 -76 -46 -45 -83 -83
-83 -86 1 -3 -3 -6 -7 -7 -5 -1 -22 -19 -38 -39 -16 -20 -29 -34 -29 -31 0 4
-10 -4 -23 -16 -13 -12 -22 -24 -20 -26 1 -2 -11 -14 -29 -27 -26 -19 -34 -21
-52 -11 -12 6 -24 10 -28 9 -5 -1 -8 3 -8 10 0 6 -3 9 -6 5 -4 -3 -13 1 -21 9
-8 8 -19 12 -24 9 -5 -4 -9 -2 -9 3 0 9 -21 18 -59 27 -8 2 -18 9 -22 17 -4 7
-11 9 -15 6 -3 -4 -22 -1 -40 7 -20 8 -36 10 -39 4 -4 -5 -11 -7 -16 -3 -9 5
-205 9 -219 4 -3 -1 -16 -3 -30 -6 -34 -6 -130 -53 -130 -64 0 -5 -8 -7 -17
-3 -10 3 -15 3 -11 -2 7 -7 -17 -28 -84 -73 -16 -10 -25 -22 -21 -25 3 -4 1
-7 -5 -7 -6 0 -26 -14 -44 -32 -18 -18 -34 -31 -35 -30 -2 1 -3 -1 -2 -4 0 -3
-16 -18 -35 -33 -20 -16 -33 -31 -29 -35 3 -3 -1 -6 -10 -6 -10 0 -17 -4 -17
-10 0 -5 -6 -10 -14 -10 -8 0 -18 -9 -21 -20 -4 -11 -9 -19 -13 -17 -10 5 -42
-30 -35 -37 4 -3 1 -6 -5 -6 -6 0 -86 -75 -178 -167 -91 -93 -170 -167 -175
-165 -5 1 -8 -1 -7 -5 1 -5 -10 -21 -26 -38 -16 -16 -26 -23 -22 -15 4 8 0 6
-8 -4 -9 -11 -16 -24 -16 -30 0 -5 -3 -6 -6 -3 -8 8 -44 -31 -44 -46 0 -6 -3
-8 -6 -4 -4 3 -22 -12 -40 -34 -19 -23 -34 -38 -34 -35 0 3 -10 -5 -23 -17
-13 -12 -22 -25 -20 -29 2 -4 -6 -9 -17 -13 -11 -4 -19 -9 -16 -13 2 -4 -14
-20 -35 -37 -21 -16 -41 -38 -44 -48 -4 -9 -10 -15 -15 -12 -5 3 -12 -4 -15
-16 -4 -11 -9 -18 -12 -15 -7 7 -43 -33 -43 -47 0 -6 -3 -8 -6 -4 -4 3 -22
-12 -40 -34 -19 -23 -34 -38 -34 -35 0 3 -10 -5 -23 -17 -13 -12 -22 -25 -20
-29 2 -4 -6 -9 -17 -13 -11 -4 -19 -9 -17 -13 4 -9 -61 -71 -67 -65 -2 2 -7
-5 -11 -16 -3 -12 -11 -19 -16 -16 -5 4 -9 1 -9 -6 0 -6 -217 -228 -482 -493
-265 -264 -481 -484 -480 -488 1 -5 -2 -8 -6 -8 -13 0 -90 -78 -84 -85 3 -3
-3 -5 -13 -5 -10 0 -15 -3 -12 -6 4 -4 -9 -19 -28 -34 -19 -15 -33 -29 -30
-31 2 -3 -9 -13 -26 -24 -16 -11 -29 -24 -29 -29 0 -5 -31 -40 -70 -79 -38
-38 -70 -72 -70 -74 0 -2 -16 -19 -35 -38 -19 -19 -31 -35 -27 -35 4 -1 -4 -7
-18 -15 -14 -8 -22 -14 -18 -15 5 0 -1 -10 -11 -22 -11 -13 -29 -34 -41 -48
-11 -13 -30 -39 -41 -57 -11 -18 -26 -33 -31 -33 -6 0 -9 -3 -5 -6 3 -4 -1
-21 -11 -38 -9 -17 -18 -40 -20 -51 -6 -30 -5 -316 1 -345 9 -45 19 -70 28
-70 4 0 6 -9 4 -20 -2 -11 0 -20 5 -20 4 0 18 -17 31 -37 12 -21 31 -48 42
-60 11 -13 18 -23 16 -23 -3 0 21 -28 53 -62 32 -34 58 -66 58 -70 0 -4 7 -8
16 -8 8 0 12 -4 9 -10 -3 -5 1 -10 10 -10 9 0 15 -3 13 -8 -5 -9 480 -491 487
-484 3 3 5 -2 5 -11 0 -10 3 -17 8 -17 4 0 21 -12 37 -28 93 -85 163 -141 168
-135 4 3 7 -2 7 -12 0 -10 3 -15 6 -12 4 4 19 -2 34 -13 16 -11 33 -20 39 -20
6 0 11 -4 11 -8 0 -4 10 -8 22 -9 11 -1 24 -6 27 -11 3 -5 14 -8 24 -6 9 1 17
-1 17 -6 0 -8 292 -6 320 2 15 5 28 10 85 31 17 6 37 13 45 14 8 1 16 7 18 13
2 5 8 8 13 4 5 -3 9 0 9 5 0 6 8 11 17 11 9 0 13 3 10 6 -8 8 36 44 53 44 6 0
8 5 5 10 -3 6 1 10 10 10 9 0 13 5 10 10 -3 6 -2 10 3 10 11 0 34 22 212 195
68 66 125 119 128 117 2 -2 13 9 23 25 10 15 19 24 19 20 0 -4 11 4 25 19 14
15 25 31 25 36 0 5 5 6 10 3 6 -3 10 2 10 11 0 10 3 15 6 11 6 -6 14 2 82 76
23 26 42 44 42 41 0 -3 18 16 40 41 22 25 40 44 40 42 0 -3 22 16 48 41 26 26
47 48 46 50 -1 2 19 22 44 45 73 67 81 75 74 81 -3 3 -1 6 5 6 14 0 82 68 75
75 -3 3 -1 5 5 5 13 0 213 200 213 213 0 6 2 8 5 5 5 -4 990 975 1056 1050 16
18 29 31 29 29 0 -7 73 66 98 97 12 16 22 26 22 22 0 -4 24 19 53 51 28 31 82
88 120 127 37 38 67 73 67 78 0 5 5 6 10 3 6 -3 10 -1 10 5 0 5 20 30 44 55
24 25 41 45 38 45 -3 0 7 11 22 25 15 14 25 25 22 25 -4 0 2 8 11 18 62 65
118 159 129 219 9 45 9 282 0 303 -3 8 -8 24 -10 35 -8 40 -19 65 -27 65 -5 0
-9 8 -9 19 0 10 -7 24 -15 31 -8 7 -15 19 -15 26 0 7 -9 30 -20 50 l-21 36
391 391 c303 303 393 388 401 376 5 -7 9 -10 9 -6 0 5 7 1 16 -7 8 -9 22 -16
30 -16 8 0 14 -4 14 -10 0 -5 5 -10 11 -10 6 0 17 -6 24 -12 33 -30 45 -38 45
-32 0 3 15 -5 33 -18 17 -14 42 -28 55 -32 13 -5 20 -12 16 -19 -4 -7 -3 -9 1
-4 5 4 19 0 32 -8 13 -9 23 -13 23 -10 0 4 7 -1 16 -9 8 -9 21 -16 28 -16 7 0
21 -8 32 -17 10 -10 28 -20 39 -21 11 -2 22 -8 23 -13 2 -5 12 -9 23 -9 10 0
19 -5 19 -12 0 -6 3 -8 6 -5 4 3 16 0 28 -8 11 -8 28 -15 37 -15 10 0 19 -5
21 -10 2 -6 14 -12 27 -15 14 -2 29 -9 34 -14 5 -5 16 -7 23 -4 8 3 14 0 14
-5 0 -11 38 -28 53 -24 4 1 26 -6 50 -17 69 -31 256 -90 337 -108 48 -10 55
-11 58 -13 1 -2 7 -4 12 -5 6 -1 11 -3 13 -5 1 -1 13 -3 27 -5 38 -4 203 -36
220 -42 15 -5 103 -14 153 -16 15 0 27 -4 27 -7 0 -4 11 -6 25 -4 14 1 39 -1
55 -6 19 -5 30 -5 30 1 0 6 7 6 18 1 9 -4 43 -7 75 -6 37 2 55 -1 51 -8 -4 -6
2 -5 15 1 11 7 21 8 21 4 0 -9 83 -9 97 0 5 3 15 2 23 -3 8 -5 22 -5 32 1 13
7 18 6 18 -2 0 -8 4 -8 13 -2 11 9 61 13 194 17 24 0 43 4 43 8 0 3 20 5 45 5
25 -1 45 1 45 6 0 4 5 7 11 7 5 0 7 -6 3 -12 -6 -9 -3 -9 9 0 9 8 21 11 26 8
5 -4 12 -2 16 3 3 6 21 8 40 7 19 -2 38 0 41 6 3 5 16 8 27 7 12 0 24 0 27 1
3 1 14 4 25 6 11 1 31 6 45 9 14 4 34 8 45 9 11 2 28 6 38 11 9 4 24 5 32 1 8
-3 15 -1 15 5 0 6 7 9 15 5 8 -3 15 -2 15 3 0 4 6 8 13 9 25 3 62 10 65 12 1
2 5 3 10 5 4 1 15 5 24 9 9 4 22 4 29 0 8 -4 9 -3 5 4 -4 7 -1 12 6 13 7 0 21
2 31 5 9 2 25 6 35 8 9 3 19 5 22 6 3 1 8 2 13 1 4 0 7 4 7 10 0 6 7 9 15 5 8
-3 15 -1 15 4 0 6 9 10 19 10 11 0 23 5 26 11 4 6 13 8 21 5 8 -3 14 -1 14 4
0 5 10 12 23 15 23 7 70 27 121 51 16 7 33 11 39 7 6 -3 7 -1 3 5 -6 10 6 17
18 10 2 -2 14 6 26 17 12 11 23 19 24 18 4 -6 46 11 46 18 0 5 3 8 8 7 4 -1
27 9 52 22 25 13 47 25 50 25 18 5 48 21 69 37 13 10 28 15 34 11 5 -3 7 -2 4
4 -3 5 9 16 28 23 19 8 35 17 35 22 0 4 7 8 15 8 8 0 15 5 15 10 0 6 7 10 15
10 8 0 15 5 15 10 0 6 6 10 13 10 12 0 26 9 74 50 7 5 19 10 28 10 9 0 14 4
11 8 -3 4 13 19 35 32 21 14 39 28 39 33 0 4 5 5 10 2 6 -3 10 -2 10 2 0 5 21
25 48 46 135 104 441 413 552 557 14 18 35 45 48 60 12 15 22 33 22 39 0 6 7
11 16 11 8 0 12 5 9 10 -3 6 -1 10 4 10 6 0 10 3 8 8 -1 4 8 18 21 32 12 13
22 30 22 37 0 7 4 13 8 13 5 0 15 12 23 28 8 15 22 36 31 46 10 10 15 23 12
28 -3 4 0 8 6 8 6 0 13 8 17 18 3 9 15 29 25 45 11 15 16 27 11 27 -4 0 -1 6
8 13 16 12 33 46 31 60 -1 4 2 7 7 7 5 0 12 11 15 25 4 14 11 25 17 25 6 0 7
5 4 10 -3 6 -1 10 5 10 6 0 8 5 5 10 -3 6 -1 10 6 10 7 0 10 3 6 6 -3 4 1 13
9 21 8 8 12 18 9 23 -3 5 -1 11 5 15 6 4 8 11 5 16 -4 5 -2 9 3 9 9 0 25 37
23 53 -1 4 4 7 10 7 5 0 7 5 4 10 -3 6 -1 10 5 10 6 0 9 4 5 9 -3 5 -1 12 5
16 6 4 8 11 5 16 -4 5 -3 9 2 9 7 0 25 43 36 85 2 6 9 20 15 33 7 12 10 22 6
22 -3 0 -1 6 5 14 7 8 14 27 17 42 3 15 8 32 12 38 7 11 12 32 14 54 1 6 5 12
10 12 4 0 7 3 7 8 -4 23 2 52 10 48 5 -4 7 3 4 14 -3 11 -1 20 4 20 5 0 9 8
10 18 3 43 8 62 16 62 5 0 5 9 2 20 -3 11 -3 20 2 20 5 0 9 8 10 18 0 9 4 28
7 42 3 14 7 37 8 53 1 15 5 27 9 27 3 0 7 12 7 28 2 37 6 55 15 70 5 7 3 12
-4 12 -8 0 -8 4 1 15 7 8 10 15 8 15 -3 0 -1 21 3 48 5 26 11 67 15 92 8 68
11 710 3 748 -5 21 -3 32 5 32 7 0 8 3 1 8 -6 4 -11 16 -10 27 0 11 -4 23 -10
27 -6 5 -5 8 3 8 10 0 10 5 2 21 -7 11 -9 27 -6 35 3 8 1 14 -5 14 -6 0 -9 14
-6 35 3 19 1 35 -4 37 -4 2 -9 22 -10 46 -2 23 -6 42 -9 42 -3 0 -7 10 -8 23
-4 37 -7 51 -15 65 -5 6 -6 12 -4 12 3 0 -3 32 -13 72 -11 39 -17 75 -15 79 3
4 -2 12 -9 19 -8 6 -15 19 -15 28 0 23 -5 44 -14 59 -8 13 -18 48 -19 71 -1 6
-5 12 -10 12 -4 0 -8 8 -8 17 0 18 -29 97 -61 167 -10 22 -16 43 -13 48 3 4 1
8 -5 8 -5 0 -13 10 -16 23 -13 42 -39 97 -47 97 -4 0 -5 7 -2 15 4 8 1 15 -5
15 -6 0 -8 7 -5 15 4 8 2 15 -3 15 -10 0 -48 70 -45 83 1 4 -3 7 -8 7 -6 0
-10 7 -10 15 0 8 -5 15 -11 15 -5 0 -7 5 -4 10 3 6 1 10 -5 10 -6 0 -8 5 -5
10 3 6 1 10 -6 10 -7 0 -10 3 -6 6 3 4 0 13 -8 21 -8 8 -15 23 -15 34 0 11 -7
19 -16 19 -10 0 -14 6 -11 14 3 8 2 16 -2 18 -4 2 -35 44 -68 93 -100 151
-149 218 -188 261 -38 42 -53 63 -48 68 4 3 -1 6 -10 6 -8 0 -19 9 -22 20 -3
11 -11 20 -16 20 -6 0 -9 3 -7 8 5 9 -59 71 -67 64 -3 -3 -5 -1 -5 5 0 6 -43
53 -95 106 -52 52 -95 92 -95 88 0 -3 -9 8 -20 24 -11 17 -20 27 -20 23 0 -8
-36 20 -77 60 -13 12 -27 22 -30 22 -3 0 -20 15 -37 33 -17 17 -32 30 -33 27
-1 -3 -13 5 -27 18 -15 12 -30 22 -35 22 -5 0 -11 4 -13 8 -1 4 -32 28 -68 52
-36 25 -68 50 -72 55 -5 7 -8 7 -8 0 0 -6 -3 -6 -8 0 -8 12 -61 46 -65 43 -1
-2 -13 7 -27 20 -13 12 -28 22 -33 22 -5 0 -21 9 -37 20 -15 11 -30 17 -34 13
-3 -3 -6 -2 -6 3 0 6 -27 23 -60 39 -33 16 -60 33 -60 38 0 5 -6 7 -14 4 -8
-3 -19 0 -25 7 -6 7 -29 19 -51 26 -22 7 -40 17 -40 23 0 5 -6 7 -14 4 -8 -3
-20 1 -26 8 -7 8 -16 12 -21 9 -5 -3 -9 0 -9 6 0 6 -4 8 -10 5 -5 -3 -10 -2
-10 3 0 9 -55 26 -72 23 -5 0 -8 4 -8 10 0 5 -4 7 -10 4 -5 -3 -10 -2 -10 2 0
5 -10 9 -21 10 -12 1 -30 10 -40 19 -12 10 -19 12 -19 5 0 -7 -8 -6 -25 5 -14
9 -25 13 -25 9 0 -4 -6 -2 -13 4 -8 6 -17 8 -20 4 -4 -3 -7 -2 -7 4 0 9 -6 11
-50 15 -11 1 -20 7 -20 12 0 5 -3 7 -6 3 -3 -3 -18 -1 -33 5 -14 5 -39 12 -56
15 -16 3 -31 9 -33 13 -2 5 -10 6 -17 4 -8 -3 -20 -2 -27 2 -7 5 -21 9 -30 10
-10 1 -19 2 -20 4 -6 4 -50 13 -125 25 -29 4 -53 10 -53 14 0 4 -18 6 -40 4
-22 -1 -40 1 -40 5 0 6 -29 10 -105 12 -16 1 -34 5 -40 9 -10 7 -679 13 -687
6z m292 -589 c0 8 13 9 40 4 22 -4 40 -4 40 0 0 4 18 4 40 0 22 -4 40 -4 40 0
0 4 19 4 43 1 23 -3 72 -6 109 -6 38 0 68 -3 68 -6 0 -4 14 -5 30 -4 17 1 30
-2 30 -9 0 -6 5 -4 10 4 5 8 10 11 10 5 0 -5 10 -11 23 -11 12 -1 38 -4 57 -8
19 -4 44 -8 55 -10 11 -2 21 -5 23 -6 2 -3 0 -2 84 -20 37 -7 65 -17 62 -21
-2 -4 4 -6 13 -5 10 2 33 -3 50 -11 18 -7 33 -10 33 -7 0 4 7 1 15 -6 8 -7 15
-9 15 -5 0 4 6 3 13 -2 6 -5 32 -16 57 -23 25 -7 53 -20 63 -28 11 -10 17 -11
17 -3 0 8 7 7 23 -3 12 -8 48 -24 80 -36 31 -12 57 -26 57 -32 0 -5 6 -8 14
-5 7 3 19 0 25 -6 6 -6 11 -7 11 -1 0 5 3 5 8 -1 11 -15 68 -45 86 -45 9 0 16
-4 16 -8 0 -4 21 -18 48 -31 26 -13 47 -22 47 -20 0 2 10 -6 23 -16 12 -11 27
-20 32 -20 4 0 20 -10 33 -22 14 -12 28 -19 31 -16 3 4 6 1 6 -5 0 -7 7 -12
15 -12 8 0 15 -3 15 -8 0 -4 16 -16 35 -26 19 -11 35 -22 35 -25 0 -4 16 -15
35 -25 19 -10 32 -23 29 -27 -3 -5 1 -9 9 -9 8 0 29 -13 47 -30 18 -16 35 -30
37 -30 3 0 19 -13 35 -30 15 -16 32 -30 37 -30 5 0 19 -13 32 -29 13 -16 27
-27 31 -25 4 3 8 -2 8 -10 0 -9 8 -16 17 -16 9 0 14 -3 11 -6 -7 -6 39 -54 52
-54 5 0 12 -9 15 -20 4 -11 11 -18 16 -15 5 4 9 2 9 -4 0 -6 17 -27 38 -48 31
-32 102 -115 137 -161 6 -7 18 -21 27 -29 9 -9 15 -20 12 -25 -3 -4 0 -8 6 -8
6 0 15 -11 20 -25 5 -14 13 -25 18 -25 5 0 15 -12 23 -27 14 -28 24 -43 46
-67 7 -8 9 -16 6 -20 -4 -3 -1 -6 6 -6 7 0 10 -4 7 -9 -3 -5 1 -12 10 -15 8
-3 13 -10 10 -15 -3 -5 1 -12 10 -15 9 -4 14 -9 11 -13 -4 -3 4 -20 16 -37 12
-17 21 -37 19 -43 -2 -7 4 -13 13 -13 8 0 14 -3 13 -7 -1 -5 19 -50 45 -102
26 -52 47 -103 47 -113 0 -12 4 -16 11 -12 7 4 10 1 7 -7 -3 -8 1 -20 9 -27 7
-8 11 -18 8 -23 -4 -5 -1 -9 5 -9 7 0 10 -7 6 -15 -3 -8 -1 -15 4 -15 6 0 9
-3 8 -7 -1 -5 4 -21 10 -36 7 -16 12 -34 12 -41 0 -6 5 -17 10 -22 6 -6 12
-19 15 -30 2 -10 9 -34 14 -53 6 -19 8 -37 6 -42 -3 -4 -1 -9 4 -11 6 -1 12
-14 15 -28 3 -14 9 -40 15 -58 5 -18 10 -36 11 -40 0 -4 3 -16 5 -27 3 -11 7
-29 9 -40 1 -11 6 -28 11 -38 4 -10 5 -20 2 -23 -3 -3 1 -21 9 -41 8 -19 10
-32 5 -28 -8 4 -8 -2 -1 -21 6 -14 11 -48 13 -75 1 -27 7 -49 12 -49 6 0 3 -5
-5 -10 -9 -6 -10 -10 -3 -10 6 0 12 -8 12 -17 -1 -66 11 -266 15 -271 3 -3 1
-11 -5 -18 -7 -8 -7 -14 1 -19 6 -3 8 -10 5 -15 -3 -5 -8 -60 -10 -122 -3 -62
-7 -126 -10 -143 -2 -16 -7 -55 -10 -85 -6 -67 -9 -82 -16 -95 -3 -5 -4 -20
-3 -32 0 -13 -2 -23 -5 -23 -4 0 -7 -8 -7 -17 -1 -17 -5 -43 -19 -117 -4 -16
-8 -33 -11 -38 -3 -5 -7 -23 -10 -40 -2 -17 -7 -34 -11 -37 -5 -3 -9 -15 -11
-26 -9 -56 -15 -75 -24 -75 -5 0 -7 -4 -4 -9 3 -5 0 -24 -8 -42 -7 -19 -17
-43 -21 -54 -5 -11 -7 -26 -6 -32 1 -7 -2 -13 -7 -13 -6 0 -13 -15 -16 -34 -4
-19 -13 -39 -21 -46 -8 -7 -13 -16 -10 -20 6 -9 -31 -88 -54 -114 -9 -11 -10
-16 -3 -12 11 7 11 4 0 -13 -7 -12 -16 -21 -20 -21 -4 0 -5 -7 -2 -15 4 -8 1
-15 -6 -15 -6 0 -8 -4 -5 -10 3 -5 2 -10 -2 -10 -5 0 -15 -16 -22 -35 -7 -19
-17 -35 -22 -35 -5 0 -9 -6 -9 -14 0 -8 -12 -29 -27 -47 -16 -18 -22 -29 -15
-25 11 7 11 4 1 -12 -7 -12 -17 -18 -23 -15 -5 3 -6 1 -3 -4 6 -10 -25 -59
-48 -75 -5 -4 -6 -8 -2 -8 9 0 -20 -43 -52 -76 -11 -12 -17 -25 -14 -28 4 -3
1 -6 -5 -6 -7 0 -12 -7 -12 -16 0 -8 -4 -12 -10 -9 -5 3 -10 0 -10 -7 0 -13
-58 -85 -117 -145 -18 -18 -30 -33 -27 -33 7 0 -162 -172 -172 -173 -4 -1 -31
-24 -59 -52 -69 -66 -105 -95 -116 -95 -6 0 -7 -4 -4 -10 3 -5 2 -10 -4 -10
-5 0 -30 -15 -54 -34 -25 -19 -48 -32 -51 -29 -3 4 -6 1 -6 -5 0 -6 -18 -21
-40 -33 -22 -13 -40 -27 -40 -33 0 -5 -3 -7 -6 -3 -3 3 -15 -3 -27 -14 -11
-10 -26 -19 -33 -19 -6 0 -15 -7 -18 -16 -4 -9 -9 -14 -12 -11 -3 3 -22 -6
-41 -19 -19 -13 -39 -21 -44 -18 -5 3 -9 1 -9 -3 0 -5 -26 -22 -57 -38 -32
-17 -60 -33 -61 -38 -2 -4 -7 -5 -12 -2 -5 3 -16 -2 -24 -11 -9 -8 -16 -13
-16 -9 0 3 -10 0 -22 -7 -13 -7 -26 -11 -30 -10 -5 1 -8 -3 -8 -8 0 -5 -3 -9
-7 -8 -5 1 -21 -4 -36 -10 -16 -7 -33 -12 -38 -12 -5 0 -9 -4 -9 -8 0 -4 -10
-8 -22 -9 -11 -1 -24 -7 -28 -14 -4 -6 -13 -8 -19 -5 -6 4 -11 2 -11 -4 0 -6
-3 -9 -7 -7 -5 3 -19 0 -33 -6 -14 -5 -29 -11 -35 -13 -5 -1 -39 -12 -75 -24
-66 -22 -105 -32 -127 -33 -7 0 -13 -3 -13 -6 0 -6 -29 -12 -72 -14 -10 -1
-18 -4 -18 -7 0 -4 -6 -7 -12 -7 -7 0 -31 -4 -53 -8 -101 -18 -139 -23 -220
-30 -33 -2 -70 -7 -82 -9 -14 -3 -23 0 -23 7 0 8 -3 8 -8 2 -4 -6 -50 -11
-108 -12 -56 0 -106 -3 -112 -7 -6 -3 -13 0 -16 6 -5 11 -7 11 -12 0 -3 -6
-10 -10 -15 -6 -5 3 -54 6 -109 6 -55 1 -100 4 -100 7 0 3 -24 6 -52 7 -77 0
-138 6 -138 13 0 3 -17 7 -38 9 -78 6 -87 7 -94 16 -3 5 -19 10 -35 12 -15 1
-37 4 -48 7 -11 3 -30 6 -43 6 -13 1 -21 5 -18 10 4 5 -2 7 -13 4 -10 -3 -22
0 -25 6 -4 5 -13 8 -21 4 -8 -3 -15 -1 -15 4 0 5 -11 10 -24 11 -13 1 -37 7
-52 13 -16 7 -35 11 -41 10 -7 -1 -13 3 -13 9 0 6 -4 8 -10 5 -5 -3 -10 -2
-10 3 0 6 -6 9 -12 9 -25 -1 -78 16 -78 24 0 5 -9 9 -20 9 -11 0 -20 5 -20 11
0 5 -4 8 -8 5 -5 -3 -20 1 -35 9 -15 8 -27 11 -27 7 0 -4 -4 -2 -8 4 -4 5 -37
23 -74 39 -38 15 -68 31 -68 34 0 7 -61 34 -72 32 -5 0 -8 4 -8 9 0 6 -6 10
-14 10 -7 0 -19 7 -26 15 -7 8 -16 12 -21 9 -5 -3 -9 -1 -9 4 0 5 -8 13 -17
16 -35 13 -73 37 -73 47 0 6 -4 7 -10 4 -5 -3 -10 -1 -10 5 0 6 -4 9 -8 6 -5
-3 -26 11 -47 30 -21 19 -44 34 -50 34 -6 0 -17 9 -25 20 -8 11 -19 20 -25 20
-6 0 -27 15 -47 33 -19 17 -47 38 -61 46 -15 8 -25 17 -23 20 2 3 -2 12 -10
19 -8 7 -14 9 -14 5 0 -4 -16 9 -35 30 -18 20 -39 37 -44 37 -6 0 -11 6 -11
13 0 6 -14 23 -32 37 -40 32 -68 61 -68 72 0 5 -4 6 -10 3 -5 -3 -10 -1 -10 5
0 15 -26 41 -34 33 -3 -4 -6 -2 -6 4 0 6 -12 22 -26 37 -15 14 -24 26 -20 26
4 0 1 6 -6 14 -7 8 -16 12 -20 9 -5 -2 -8 3 -8 11 0 9 -5 16 -12 16 -6 0 -9 3
-6 6 3 3 -4 16 -16 29 -11 13 -31 35 -44 49 -12 14 -19 26 -15 26 4 0 0 5 -9
11 -10 5 -18 17 -18 25 0 9 -5 12 -12 8 -8 -5 -9 -2 -5 9 4 11 1 17 -8 17 -8
0 -14 3 -13 8 3 9 -92 156 -104 160 -4 2 -6 8 -2 13 3 5 0 9 -6 9 -6 0 -9 4
-6 8 3 5 -4 19 -15 31 -11 12 -17 26 -14 31 3 6 1 10 -4 10 -6 0 -11 7 -11 15
0 8 -5 15 -11 15 -5 0 -7 5 -4 10 3 6 1 10 -5 10 -6 0 -9 4 -6 9 3 5 0 14 -8
20 -13 11 -31 62 -24 69 2 2 -5 8 -14 13 -10 6 -18 16 -18 24 0 7 -11 36 -25
63 -14 28 -25 57 -25 65 0 9 -4 19 -10 22 -5 3 -10 17 -10 30 0 13 -4 25 -10
27 -5 2 -11 12 -13 23 -2 11 -7 27 -10 35 -3 8 -7 24 -9 35 -2 11 -6 23 -10
26 -5 3 -9 17 -10 32 -1 15 -6 27 -11 27 -5 0 -7 9 -4 20 3 11 1 20 -5 20 -6
0 -8 7 -5 15 4 8 2 17 -3 20 -5 3 -9 13 -9 23 0 19 -4 39 -16 65 -4 10 -5 21
-2 24 4 3 1 15 -5 27 -7 11 -13 35 -14 51 -1 17 -3 30 -4 30 -1 0 -4 16 -5 35
-1 19 -5 43 -10 53 -4 9 -5 28 -3 42 3 13 1 22 -3 19 -5 -3 -9 10 -8 28 1 50
-9 156 -16 168 -3 5 0 10 7 10 9 0 9 3 -2 10 -11 7 -11 10 -2 10 8 0 10 5 5
13 -9 14 -11 317 -2 317 3 0 5 20 4 45 -1 24 1 43 4 41 4 -3 7 14 7 37 0 23 4
62 8 87 4 25 7 55 8 68 1 12 4 22 8 22 3 0 6 12 6 28 1 27 8 63 21 112 11 44
16 64 29 127 3 15 9 30 13 33 4 3 8 19 9 35 1 17 6 31 12 33 5 2 6 10 3 18 -3
8 0 14 6 14 6 0 10 3 10 8 -1 4 -1 9 1 12 1 3 4 16 6 30 3 14 9 26 14 28 5 2
6 10 3 18 -3 8 0 14 6 14 6 0 8 6 5 14 -3 8 0 17 5 21 6 3 9 11 6 16 -4 5 -1
9 4 9 6 0 10 3 9 8 -1 4 8 28 20 54 12 26 22 54 22 62 0 9 5 16 11 16 5 0 7 5
4 10 -3 6 1 13 9 16 9 3 14 10 11 14 -3 5 -1 11 5 15 6 4 8 11 5 16 -4 5 -2 9
3 9 9 0 33 49 36 72 1 4 7 13 14 19 6 7 12 19 12 26 0 7 5 13 10 13 6 0 10 6
10 14 0 8 6 21 13 28 7 7 20 27 27 45 8 17 18 29 22 27 4 -3 8 4 8 15 0 10 3
21 8 23 4 2 22 27 41 56 18 28 37 52 42 52 5 0 9 7 9 15 0 9 7 18 15 21 8 4
15 10 15 15 0 5 12 23 28 41 15 17 47 54 72 82 77 88 287 296 299 296 7 0 9 5
6 10 -3 6 -2 10 2 10 5 0 29 18 53 41 68 62 171 139 187 139 8 0 12 4 9 8 -3
4 15 19 40 32 24 14 44 29 44 34 0 5 3 7 6 3 3 -3 15 3 27 13 11 11 24 17 29
14 4 -3 8 -1 8 3 0 5 26 22 58 38 31 17 64 36 74 43 9 8 22 15 30 16 7 1 24 8
38 16 14 8 31 15 39 16 8 2 17 8 21 14 4 7 11 12 16 12 5 0 33 11 63 24 29 13
57 21 62 18 5 -3 12 2 15 10 3 9 9 14 13 11 4 -2 21 3 37 11 33 18 61 26 87
26 9 -1 15 3 12 9 -5 8 23 14 48 10 4 0 7 3 7 7 0 4 8 8 18 9 9 1 38 9 65 18
26 9 51 13 56 10 5 -3 11 -1 13 4 1 6 17 12 33 15 17 2 30 5 30 6 0 4 53 13
82 14 18 0 33 4 33 7 0 7 103 21 171 24 20 1 41 5 47 9 7 4 12 3 12 -3 0 -7 8
-7 23 -2 12 5 68 8 125 7 62 0 102 3 102 9 0 6 5 3 10 -5 5 -8 10 -10 10 -4z"/>
<path d="M7973 9697 c-4 -7 -25 -27 -46 -45 -21 -17 -35 -32 -32 -32 3 0 0 -6
-7 -14 -7 -8 -16 -12 -21 -9 -21 13 3 -27 40 -65 23 -24 43 -46 45 -50 2 -4
17 -19 35 -33 18 -15 30 -29 27 -32 -3 -3 4 -8 15 -12 12 -3 21 -13 21 -21 0
-8 7 -14 15 -14 8 0 15 -3 15 -8 0 -8 17 -26 129 -136 45 -43 81 -82 81 -87 0
-5 4 -9 8 -9 9 0 132 -119 132 -129 0 -3 14 -15 30 -26 16 -11 30 -26 30 -32
0 -7 6 -13 14 -13 8 0 18 -9 21 -21 4 -11 9 -19 11 -16 6 6 74 -62 74 -73 0
-5 9 -12 20 -15 11 -3 20 -13 20 -21 0 -8 6 -14 14 -14 8 0 18 -9 21 -21 4
-11 9 -19 11 -16 6 6 74 -62 74 -74 0 -5 4 -9 8 -9 7 0 55 -46 136 -130 8 -8
46 -46 85 -83 39 -38 71 -72 71 -75 0 -4 14 -16 30 -27 16 -11 30 -26 30 -32
0 -7 6 -13 14 -13 8 0 18 -9 21 -20 4 -11 11 -18 16 -15 5 4 9 3 9 -2 0 -8 20
-29 120 -127 33 -33 60 -63 60 -68 0 -4 4 -8 9 -8 12 0 80 -68 74 -74 -3 -2 5
-7 16 -11 12 -3 21 -13 21 -21 0 -8 6 -14 14 -14 8 0 16 -7 20 -15 6 -18 47
-16 65 2 6 7 10 13 7 13 -3 0 5 10 17 23 12 13 24 22 27 21 3 -1 15 12 28 27
13 16 18 29 12 29 -6 0 -8 5 -5 10 4 6 3 10 -2 9 -15 -4 -43 13 -43 26 0 8 -9
17 -20 20 -11 3 -20 9 -20 13 0 10 -110 122 -120 122 -5 0 -12 9 -15 20 -3 11
-13 20 -21 20 -8 0 -14 4 -14 8 0 15 -37 52 -44 45 -3 -3 -6 0 -6 8 0 8 -15
25 -33 38 -17 13 -45 41 -62 62 -16 21 -36 38 -43 39 -7 0 -11 4 -7 9 3 5 -3
12 -12 16 -10 4 -38 31 -63 60 -25 29 -52 56 -61 59 -9 4 -22 18 -29 31 -7 14
-20 25 -27 25 -8 0 -12 4 -9 8 3 5 -6 15 -19 22 -14 7 -27 22 -31 32 -3 10
-10 16 -15 13 -5 -4 -9 -2 -9 4 0 11 -111 121 -122 121 -4 0 -10 9 -13 20 -3
11 -13 20 -21 20 -8 0 -14 4 -14 8 0 15 -37 52 -44 45 -3 -3 -6 0 -6 8 0 8
-15 25 -33 38 -17 13 -45 41 -62 62 -16 21 -36 38 -43 39 -7 0 -11 4 -7 9 3 5
-3 12 -12 16 -10 4 -38 31 -63 60 -25 29 -52 56 -61 59 -9 4 -22 18 -29 31 -7
14 -20 25 -27 25 -8 0 -12 4 -9 8 3 5 -6 15 -19 22 -14 7 -27 20 -30 29 -3 9
-21 27 -40 41 -19 14 -37 33 -41 43 -3 9 -10 15 -15 12 -5 -4 -9 0 -9 7 -1 7
-18 27 -39 43 -21 17 -49 45 -62 62 -13 18 -30 33 -38 33 -8 0 -11 3 -8 6 7 7
-30 44 -45 44 -4 0 -8 6 -8 13 0 20 -47 40 -57 24z"/>
<path d="M7696 9418 c-69 -73 -126 -136 -126 -141 0 -5 -27 -39 -60 -76 -33
-37 -60 -73 -60 -79 0 -7 -16 -29 -35 -51 -19 -21 -35 -43 -35 -49 0 -5 -12
-20 -26 -33 -14 -13 -41 -55 -60 -94 -19 -38 -58 -116 -87 -171 -62 -120 -99
-202 -104 -228 -2 -11 -8 -24 -13 -30 -5 -7 -10 -23 -12 -36 -2 -14 -6 -29
-10 -35 -3 -5 -9 -26 -13 -45 -4 -19 -10 -39 -13 -45 -7 -11 -9 -21 -17 -80
-3 -22 -9 -53 -15 -70 -13 -42 -20 -124 -21 -235 -1 -52 0 -97 1 -100 1 -3 3
-18 5 -35 10 -83 18 -122 27 -138 6 -12 6 -23 -2 -31 -9 -11 -25 -10 -93 5
-58 13 -121 18 -217 18 -147 -1 -209 -9 -355 -45 -33 -8 -70 -17 -82 -19 -12
-1 -28 -7 -35 -11 -7 -5 -17 -10 -23 -11 -30 -7 -42 -11 -57 -17 -9 -4 -22 -9
-30 -10 -7 -1 -38 -14 -68 -28 -30 -15 -81 -38 -112 -52 -31 -14 -60 -31 -63
-36 -4 -6 -10 -8 -15 -5 -4 2 -24 -6 -43 -19 -19 -13 -53 -32 -74 -42 -21 -10
-57 -33 -81 -51 -24 -18 -48 -33 -54 -33 -5 0 -30 -18 -55 -40 -25 -22 -50
-40 -56 -40 -6 0 -41 -27 -78 -60 -37 -33 -71 -60 -76 -60 -5 0 -69 -58 -143
-129 l-135 -129 847 -849 848 -848 66 65 c98 97 364 407 364 426 0 3 14 22 30
41 17 18 30 41 30 50 0 9 8 25 18 36 9 10 26 37 37 58 11 22 46 89 77 149 32
61 55 110 52 110 -3 0 4 16 16 35 12 19 19 35 16 35 -4 0 1 11 10 24 8 14 15
28 14 31 -1 3 3 18 8 33 18 48 53 165 57 191 3 14 9 44 15 66 32 127 34 478 3
529 -11 17 -13 65 -4 71 10 5 106 -12 131 -24 16 -8 336 -6 381 2 79 15 146
29 159 34 8 3 22 7 30 9 68 15 175 51 222 75 10 5 24 9 32 9 7 0 19 6 26 14 6
8 17 13 23 11 7 -2 62 23 122 56 61 32 126 66 145 75 19 9 50 29 68 45 18 16
38 29 44 29 6 0 30 16 54 35 23 19 45 35 49 35 8 0 111 80 205 159 90 76 250
233 250 246 0 14 -1666 1679 -1684 1683 -7 2 -70 -57 -140 -130z m822 -801
c376 -376 680 -686 676 -690 -4 -4 -1 -7 7 -7 9 0 27 -13 42 -28 l27 -28 -125
-107 c-69 -59 -129 -107 -135 -107 -6 0 -29 -17 -53 -38 -23 -21 -57 -44 -74
-51 -18 -8 -33 -17 -33 -21 0 -4 -17 -15 -37 -26 -21 -10 -63 -34 -93 -53 -30
-18 -59 -34 -65 -35 -5 -1 -21 -9 -35 -19 -13 -9 -32 -17 -41 -17 -9 0 -22 -7
-29 -15 -7 -8 -19 -15 -26 -15 -8 0 -22 -4 -32 -9 -20 -11 -73 -33 -87 -37 -5
-2 -37 -12 -70 -23 -153 -49 -211 -62 -345 -75 -59 -6 -204 -8 -233 -3 -9 2
-22 8 -28 14 -6 6 -26 9 -45 6 -19 -3 -39 -1 -46 4 -12 9 -48 21 -88 29 -8 2
-54 -37 -103 -85 l-90 -88 19 -54 c10 -30 19 -58 19 -64 1 -5 3 -12 4 -15 11
-23 14 -66 16 -205 1 -88 -2 -165 -7 -172 -5 -6 -8 -17 -7 -25 4 -17 -8 -78
-28 -148 -45 -158 -58 -197 -71 -217 -8 -13 -11 -23 -8 -23 4 0 0 -12 -8 -27
-8 -16 -17 -35 -20 -43 -3 -8 -10 -22 -15 -30 -5 -8 -14 -26 -20 -40 -6 -14
-17 -34 -23 -45 -68 -106 -88 -142 -88 -157 0 -10 -3 -18 -8 -18 -4 0 -19 -21
-32 -47 -14 -27 -42 -68 -62 -92 -21 -24 -38 -48 -38 -53 0 -17 -163 -196
-184 -202 -16 -5 -18 -8 -8 -14 10 -7 9 -12 -4 -23 -12 -9 -15 -10 -10 -1 5 8
1 12 -11 12 -19 0 -1413 1387 -1413 1405 0 14 189 187 224 205 16 8 47 31 70
51 22 19 62 45 88 58 25 12 52 29 59 37 6 8 30 23 53 34 38 19 63 33 126 69
14 8 25 13 25 12 0 -2 32 13 72 33 39 20 76 36 82 36 6 0 19 4 29 9 17 10 133
50 165 57 9 2 27 6 40 9 27 7 103 24 137 31 14 3 88 9 165 12 107 5 156 4 210
-8 39 -8 75 -18 80 -21 6 -4 26 -9 45 -13 34 -6 39 -3 124 83 l90 90 -13 43
c-8 24 -16 50 -19 58 -3 8 -7 22 -10 30 -9 30 -10 363 -1 394 5 17 12 46 15
64 3 17 12 44 20 60 7 15 14 39 14 55 0 15 9 53 21 85 11 31 22 62 23 67 19
70 183 396 206 410 4 3 19 26 31 53 13 26 45 74 71 106 26 33 48 64 48 69 0 5
41 52 90 105 50 52 90 102 90 109 0 7 3 13 8 13 4 0 314 -307 690 -683z"/>
<path d="M5034 6756 c-3 -9 -9 -14 -13 -13 -3 2 -14 -4 -23 -15 -10 -10 -15
-18 -12 -18 4 0 -9 -12 -28 -28 -40 -31 -38 -55 6 -90 14 -11 26 -25 26 -30 0
-6 9 -14 20 -17 11 -3 20 -12 20 -19 0 -7 11 -19 25 -26 13 -7 27 -22 31 -32
3 -10 10 -16 15 -13 5 4 9 -1 9 -9 0 -9 6 -16 14 -16 8 0 17 -8 21 -17 3 -10
21 -29 39 -43 19 -14 32 -28 30 -32 -2 -4 5 -9 16 -13 11 -3 20 -12 20 -18 0
-7 14 -21 30 -32 16 -11 30 -25 30 -32 0 -6 9 -15 20 -18 11 -3 20 -12 20 -19
0 -7 11 -19 25 -26 13 -7 27 -22 31 -32 3 -10 10 -16 15 -13 5 4 9 -1 9 -9 0
-9 8 -16 17 -16 9 0 14 -3 10 -6 -7 -8 17 -34 32 -34 5 0 13 -9 16 -20 3 -11
12 -20 18 -20 7 0 21 -13 32 -29 10 -16 23 -27 27 -25 4 3 8 -2 8 -11 0 -9 5
-13 10 -10 6 3 10 -1 10 -9 0 -9 6 -16 14 -16 8 0 18 -9 21 -20 4 -11 11 -18
16 -15 5 4 9 -1 9 -10 0 -9 5 -13 10 -10 6 3 10 -1 10 -10 0 -9 9 -19 20 -22
11 -3 20 -11 20 -17 0 -7 11 -19 25 -26 14 -7 23 -15 20 -18 -6 -6 21 -32 34
-32 5 0 13 -9 16 -20 3 -11 12 -20 18 -20 7 0 21 -14 32 -30 11 -16 26 -30 33
-30 6 0 12 -7 12 -16 0 -9 9 -18 20 -21 11 -3 17 -9 14 -14 -3 -5 2 -9 11 -9
9 0 14 -4 10 -9 -3 -5 4 -12 15 -16 11 -3 20 -13 20 -21 0 -8 7 -14 16 -14 8
0 12 -4 9 -10 -3 -5 1 -10 10 -10 9 0 14 -4 11 -8 -2 -4 9 -17 25 -27 16 -11
29 -25 29 -32 0 -6 9 -15 20 -18 11 -3 20 -11 20 -16 0 -15 26 -39 34 -32 3 4
6 -1 6 -10 0 -9 7 -17 16 -17 8 0 13 -4 9 -9 -3 -5 3 -12 13 -15 10 -4 25 -18
32 -31 7 -14 19 -25 26 -25 7 0 16 -9 19 -20 3 -11 12 -20 18 -20 7 0 21 -14
32 -30 11 -16 25 -30 32 -30 6 0 15 -9 18 -20 4 -11 9 -18 13 -16 4 2 18 -11
32 -30 14 -18 32 -36 41 -39 9 -3 22 -16 29 -30 7 -13 17 -22 22 -19 4 3 8 -2
8 -10 0 -9 6 -16 14 -16 8 0 18 -9 21 -20 7 -23 33 -27 41 -5 4 8 12 15 20 15
8 0 13 3 12 8 -2 4 -1 7 2 7 10 1 56 50 53 56 -1 4 4 9 12 13 8 3 12 12 9 21
-3 8 -10 13 -14 10 -5 -3 -11 4 -15 15 -3 11 -13 20 -21 20 -8 0 -12 5 -9 10
3 6 -1 10 -10 10 -9 0 -14 3 -12 8 2 4 -15 23 -39 42 -23 19 -43 38 -43 42 -1
11 -49 56 -54 51 -3 -2 -8 5 -12 16 -3 12 -12 21 -20 21 -8 0 -17 9 -20 20 -3
11 -12 20 -18 21 -7 0 -28 20 -47 43 -19 24 -38 41 -42 39 -5 -2 -8 3 -8 12 0
9 -4 13 -10 10 -5 -3 -10 1 -10 9 0 9 -4 16 -8 16 -15 0 -52 37 -45 44 3 3 -1
6 -11 6 -9 0 -15 4 -12 8 3 5 -6 15 -19 22 -14 7 -25 19 -25 26 0 7 -9 16 -20
19 -11 4 -19 9 -17 13 5 10 -30 42 -37 35 -3 -4 -6 1 -6 11 0 9 -4 14 -10 11
-5 -3 -10 2 -10 11 0 10 -3 14 -6 11 -4 -4 -19 9 -34 28 -15 19 -30 32 -33 29
-3 -3 -8 4 -12 15 -3 12 -12 21 -19 21 -7 0 -19 11 -26 25 -7 13 -17 22 -22
19 -4 -3 -8 3 -8 12 0 10 -3 14 -6 11 -7 -7 -44 30 -44 45 0 4 -7 8 -16 8 -8
0 -12 5 -9 10 3 6 -1 10 -10 10 -9 0 -14 3 -12 8 2 4 -15 23 -39 42 -23 19
-43 39 -43 44 -1 12 -49 55 -54 49 -3 -2 -8 5 -12 16 -3 12 -12 21 -19 21 -7
0 -19 11 -26 25 -7 13 -17 22 -22 19 -4 -3 -8 3 -8 12 0 10 -3 14 -6 11 -7 -7
-44 30 -44 45 0 4 -7 8 -16 8 -8 0 -12 5 -9 10 3 6 -1 10 -10 10 -9 0 -14 3
-12 8 2 4 -15 23 -39 42 -23 19 -43 40 -43 47 -1 6 -10 15 -21 18 -11 3 -20
12 -20 20 0 8 -9 17 -21 20 -11 4 -18 9 -16 12 5 5 -40 53 -51 54 -4 0 -23 20
-42 43 -19 24 -38 41 -42 39 -5 -2 -8 3 -8 12 0 9 -4 13 -10 10 -5 -3 -10 1
-10 9 0 8 -9 18 -20 21 -11 3 -20 13 -20 21 0 8 -4 12 -10 9 -5 -3 -10 2 -10
11 0 10 -3 15 -6 12 -6 -7 -54 39 -54 52 0 6 -4 10 -9 10 -5 0 -17 7 -25 16
-15 14 -17 14 -22 0z"/>
<path d="M682 10303 c-6 -3 -10 -9 -6 -14 3 -5 0 -9 -7 -9 -8 0 -8 -4 1 -15 7
-8 10 -21 7 -30 -4 -8 -2 -17 3 -20 9 -6 26 -58 32 -100 2 -11 7 -26 11 -32 5
-7 5 -13 1 -13 -3 0 -2 -6 3 -12 6 -7 9 -21 8 -30 -2 -10 1 -18 7 -18 6 0 8
-6 5 -13 -3 -7 1 -21 9 -32 11 -15 11 -20 1 -27 -9 -6 -9 -8 1 -8 6 0 12 -11
12 -25 0 -14 3 -25 8 -25 4 0 8 -10 9 -23 4 -36 9 -56 16 -63 4 -4 7 -18 7
-30 0 -13 5 -26 11 -29 5 -4 8 -12 6 -18 -2 -7 2 -28 9 -47 8 -19 16 -46 18
-60 3 -14 5 -25 6 -25 1 0 4 -11 6 -25 2 -13 8 -27 13 -30 4 -3 7 -13 5 -22
-1 -10 3 -18 9 -18 7 0 5 -5 -3 -10 -8 -5 -10 -10 -4 -10 7 0 14 -15 18 -32 6
-35 9 -43 20 -70 4 -9 5 -22 1 -28 -3 -5 -1 -10 5 -10 7 0 10 -7 7 -15 -4 -8
-1 -17 4 -21 6 -3 9 -15 6 -25 -3 -12 -1 -17 6 -12 6 4 8 0 4 -10 -3 -10 -2
-17 4 -17 6 0 9 -8 8 -17 -1 -10 3 -31 10 -47 6 -16 10 -34 8 -40 -2 -6 2 -17
10 -24 7 -7 14 -24 14 -38 2 -27 3 -33 13 -56 4 -9 9 -25 11 -35 2 -10 4 -19
5 -20 2 -2 4 -7 5 -13 1 -5 3 -11 5 -12 2 -4 11 -41 12 -55 1 -7 6 -13 12 -13
6 0 4 -5 -4 -10 -12 -7 -12 -10 -1 -10 7 0 11 -6 7 -15 -3 -8 -2 -15 3 -15 8
0 11 -16 12 -57 1 -13 5 -20 10 -17 5 3 10 -4 10 -15 2 -29 3 -34 12 -48 5 -7
6 -13 3 -13 -3 0 2 -16 10 -36 8 -20 13 -39 10 -41 -3 -3 0 -15 6 -27 7 -11
12 -25 13 -31 0 -5 6 -28 13 -50 7 -22 20 -63 29 -91 15 -47 19 -51 62 -64 25
-7 49 -12 54 -12 4 1 7 -3 7 -9 0 -5 5 -7 11 -3 6 3 15 0 20 -7 6 -11 9 -11 9
-1 0 9 6 9 23 -3 13 -8 27 -12 30 -8 4 3 7 0 7 -7 0 -7 3 -11 6 -8 3 4 20 2
37 -4 18 -5 37 -11 42 -12 6 -2 17 -6 25 -9 8 -3 29 -9 45 -13 34 -8 42 -10
53 -14 4 -1 10 -2 15 -1 4 0 7 -3 7 -7 0 -4 8 -8 18 -9 26 -1 58 -10 80 -22
11 -6 22 -8 25 -4 4 3 13 1 20 -6 8 -6 26 -12 41 -13 14 -1 26 -6 26 -10 0 -4
3 -7 8 -7 25 4 62 -2 58 -10 -4 -5 5 -8 19 -6 14 1 28 -2 31 -7 3 -4 10 -6 15
-3 5 4 9 1 9 -6 0 -7 3 -10 6 -6 3 3 23 -1 45 -8 21 -8 39 -12 39 -9 0 2 10
-1 23 -7 12 -7 35 -14 51 -16 16 -2 35 -8 43 -14 7 -6 13 -8 13 -4 0 4 6 3 13
-2 6 -6 22 -9 35 -8 12 1 22 -2 22 -5 0 -6 44 -19 65 -20 3 0 21 -6 40 -14 19
-8 35 -12 35 -9 0 3 8 -1 17 -8 14 -12 15 -12 9 -1 -7 12 -4 12 15 1 13 -7 29
-14 34 -15 6 -1 30 -8 55 -15 25 -7 48 -13 52 -13 3 -1 10 -4 14 -8 4 -5 17
-8 28 -8 12 0 34 -7 49 -15 15 -8 25 -10 22 -5 -3 6 1 7 9 4 9 -3 16 -9 16
-13 0 -4 10 -7 23 -6 12 1 28 -2 35 -8 12 -9 40 -16 80 -19 6 -1 12 -4 12 -7
0 -4 11 -8 26 -9 14 -1 33 -6 43 -12 10 -5 21 -6 25 -3 3 3 6 1 6 -5 0 -6 6
-9 13 -6 7 2 26 -2 41 -10 16 -8 35 -12 44 -9 10 4 13 2 8 -5 -4 -7 0 -10 13
-7 10 2 29 -2 43 -9 22 -12 24 -11 23 16 0 15 -4 28 -9 28 -4 0 -5 8 -2 17 4
9 3 19 -3 22 -5 3 -12 22 -15 41 -14 82 -19 100 -25 100 -4 0 -8 14 -9 32 -2
17 -7 38 -13 45 -6 7 -9 20 -5 28 3 8 1 15 -5 15 -6 0 -9 7 -6 15 4 8 2 17 -4
20 -5 4 -7 10 -4 15 3 5 1 11 -4 14 -5 4 -8 14 -7 24 2 9 -1 19 -5 22 -5 3
-10 21 -11 40 -2 19 -6 37 -10 40 -4 3 -8 17 -10 30 -2 14 -7 30 -11 37 -4 6
-8 23 -9 37 -1 14 -5 26 -9 26 -4 0 -9 15 -12 33 -3 17 -8 43 -12 57 -3 14 -7
31 -7 38 -1 6 -5 12 -10 12 -5 0 -8 8 -7 18 2 9 -2 27 -9 40 -7 12 -11 22 -8
22 3 0 -2 24 -11 53 -8 28 -16 57 -17 62 -1 6 -8 21 -15 34 -11 19 -11 22 1
15 11 -6 11 -5 -1 9 -7 9 -10 17 -6 17 4 0 2 6 -4 13 -6 8 -8 17 -4 20 3 4 -2
17 -13 29 -12 13 -13 18 -4 13 13 -8 13 -7 1 8 -7 9 -11 17 -8 17 3 0 0 15 -8
34 -8 18 -11 36 -8 39 3 4 1 13 -5 20 -7 8 -9 17 -5 20 3 4 1 7 -5 7 -6 0 -11
8 -11 18 -1 35 -5 52 -11 52 -3 0 -7 8 -8 18 -3 30 -7 47 -15 59 -4 6 -8 23
-9 37 -1 14 -6 26 -11 26 -5 0 -7 9 -4 20 3 11 1 20 -5 20 -6 0 -8 7 -4 15 3
8 1 15 -5 15 -6 0 -7 5 -4 10 3 6 0 10 -7 10 -9 0 -9 3 2 10 9 6 11 10 3 10
-7 0 -10 7 -7 15 4 8 1 15 -5 15 -6 0 -11 8 -11 17 0 15 -12 59 -28 103 -3 8
-7 20 -8 25 -1 6 -3 13 -4 18 -1 4 -4 12 -5 17 -1 6 -3 11 -5 13 -2 3 -11 40
-12 55 -1 6 -6 12 -11 12 -6 0 -7 3 -4 7 4 3 0 17 -9 31 -12 18 -12 22 -3 17
8 -4 3 2 -10 13 -14 11 -31 18 -38 15 -7 -3 -13 0 -13 6 0 6 -7 8 -17 4 -10
-4 -14 -2 -10 4 4 6 1 10 -6 10 -25 -1 -97 16 -93 22 3 4 -5 8 -17 9 -34 3
-51 7 -62 13 -14 8 -68 23 -77 21 -5 -1 -8 2 -8 7 0 5 -9 7 -20 4 -11 -3 -20
-1 -20 4 0 5 -12 10 -27 11 -15 1 -32 7 -37 12 -6 6 -25 10 -43 10 -18 0 -33
4 -33 8 0 5 -6 9 -12 10 -15 1 -53 10 -53 12 0 1 -11 4 -25 6 -13 2 -27 8 -30
12 -3 4 -20 8 -39 10 -19 1 -41 7 -48 14 -7 6 -13 7 -13 3 0 -4 -6 -2 -13 4
-8 6 -16 8 -19 5 -3 -3 -22 2 -42 10 -20 8 -36 12 -36 8 0 -3 -5 -1 -12 6 -7
7 -21 12 -33 12 -11 0 -33 7 -48 15 -15 8 -25 10 -22 5 3 -6 -1 -7 -9 -4 -9 3
-16 9 -16 13 0 4 -8 7 -17 8 -10 0 -28 4 -40 7 -13 3 -33 9 -45 12 -30 7 -40
10 -58 17 -31 11 -115 31 -122 29 -5 -1 -8 3 -8 9 0 6 -6 9 -12 6 -7 -2 -22 0
-33 6 -11 6 -29 12 -40 13 -21 2 -58 11 -62 14 -2 2 -7 4 -13 5 -5 1 -11 3
-12 5 -2 1 -12 3 -23 5 -36 6 -50 10 -62 18 -7 5 -17 5 -23 2 -5 -3 -10 -1
-10 5 0 6 -4 8 -10 5 -5 -3 -10 0 -10 7 0 9 -3 9 -10 -2 -7 -11 -10 -11 -10
-2 0 7 -4 10 -10 7 -5 -3 -21 2 -35 11 -20 13 -25 13 -25 3 0 -11 -2 -11 -10
1 -5 8 -10 11 -10 6 0 -5 -6 -3 -13 3 -8 6 -17 8 -20 4 -4 -3 -7 -2 -7 4 0 6
-9 9 -20 6 -11 -3 -20 0 -20 6 0 6 -3 10 -7 10 -29 -5 -73 3 -68 11 3 6 -1 7
-9 4 -9 -3 -16 -2 -16 4 0 6 -9 8 -21 5 -12 -3 -24 -1 -28 4 -3 6 -12 8 -19 6z"/>
<path d="M4420 10199 c0 -5 -8 -7 -47 -10 -10 -1 -23 -6 -30 -11 -7 -5 -17 -7
-23 -3 -5 3 -10 1 -10 -5 0 -7 -7 -10 -15 -6 -8 3 -21 -2 -30 -10 -10 -11 -15
-12 -15 -3 0 7 -8 5 -22 -7 -13 -12 -18 -13 -13 -4 7 12 6 13 -7 3 -8 -7 -18
-10 -21 -6 -4 3 -7 1 -7 -6 0 -7 -4 -9 -10 -6 -5 3 -16 3 -22 -2 -7 -4 -17 -8
-23 -10 -33 -7 -57 -13 -112 -31 -34 -11 -65 -17 -68 -14 -3 4 -9 1 -13 -5 -4
-7 -23 -14 -42 -15 -19 -2 -38 -7 -41 -12 -4 -5 -18 -8 -33 -8 -14 0 -26 -4
-26 -9 0 -5 -9 -9 -19 -9 -11 0 -22 -4 -25 -9 -3 -4 -17 -7 -31 -6 -14 2 -25
0 -25 -4 0 -4 -6 -8 -12 -9 -39 -5 -55 -10 -77 -21 -17 -9 -21 -10 -16 -1 5 8
0 8 -16 -1 -13 -8 -28 -14 -34 -15 -5 0 -30 -6 -55 -14 -25 -7 -51 -13 -57
-13 -7 0 -13 -5 -13 -10 0 -5 -7 -7 -15 -4 -8 4 -17 2 -20 -4 -4 -5 -10 -7
-15 -4 -5 3 -11 1 -15 -5 -4 -6 -10 -8 -15 -5 -5 3 -21 -2 -35 -11 -17 -11
-25 -12 -25 -4 0 7 -6 6 -16 -4 -19 -19 -28 -21 -18 -3 5 8 2 8 -9 -2 -9 -7
-17 -10 -17 -6 0 4 -7 2 -15 -5 -8 -7 -15 -9 -15 -5 0 4 -6 2 -13 -4 -8 -6
-17 -8 -20 -4 -4 3 -7 0 -7 -8 0 -11 -2 -11 -10 1 -8 12 -10 12 -10 1 0 -8 -7
-11 -20 -8 -13 3 -18 1 -13 -6 4 -6 -2 -8 -15 -5 -12 3 -22 2 -24 -3 -2 -5
-15 -10 -30 -11 -16 -1 -28 -5 -28 -9 0 -4 -11 -6 -25 -5 -13 2 -22 -1 -19 -5
3 -5 -4 -9 -14 -9 -11 0 -26 -8 -33 -17 -8 -10 -9 -14 -2 -10 7 5 12 1 12 -10
0 -10 7 -43 17 -73 9 -30 17 -63 17 -72 1 -10 5 -18 9 -18 4 0 5 -9 3 -20 -2
-11 0 -18 6 -15 5 4 9 -10 9 -29 0 -20 5 -36 10 -36 6 0 10 -13 10 -28 0 -15
4 -32 9 -38 5 -5 11 -25 13 -44 2 -19 6 -38 10 -41 5 -3 9 -17 10 -32 1 -15 6
-27 11 -27 5 0 7 -7 3 -15 -3 -8 0 -15 7 -15 8 0 6 -4 -3 -10 -11 -7 -11 -10
-2 -10 7 0 11 -4 8 -9 -4 -5 -2 -11 4 -13 5 -1 10 -18 12 -36 1 -19 6 -36 10
-38 4 -3 8 -16 8 -30 0 -13 4 -24 8 -24 4 0 9 -14 10 -32 2 -17 8 -38 14 -45
6 -7 7 -13 3 -13 -4 0 -3 -6 2 -12 6 -7 9 -21 8 -30 -2 -10 0 -18 4 -18 4 0 8
-6 9 -12 0 -7 3 -24 7 -38 4 -14 8 -32 9 -40 1 -9 5 -21 10 -28 4 -6 9 -22 12
-34 3 -13 6 -27 7 -33 2 -5 6 -16 10 -22 5 -7 5 -17 2 -23 -3 -5 -1 -10 5 -10
7 0 9 -8 5 -20 -4 -12 -2 -20 5 -20 6 0 8 -4 5 -10 -3 -5 -2 -10 4 -10 5 0 8
-8 6 -17 -1 -10 2 -24 8 -30 5 -7 6 -13 2 -13 -4 0 -2 -7 5 -15 6 -8 9 -19 6
-24 -4 -5 -2 -12 4 -16 5 -3 10 -16 10 -29 0 -12 5 -27 12 -34 7 -7 8 -12 4
-12 -5 0 -3 -7 4 -15 7 -9 10 -18 7 -22 -3 -3 1 -19 9 -35 8 -16 12 -33 9 -38
-3 -6 -1 -10 6 -10 7 0 9 -3 6 -7 -4 -3 -2 -12 4 -20 6 -7 9 -13 5 -13 -4 0 0
-13 8 -29 9 -16 12 -31 9 -35 -4 -3 -1 -6 6 -6 7 0 9 -4 6 -10 -3 -5 -1 -10 5
-10 6 0 8 -5 4 -11 -4 -7 1 -9 12 -7 11 2 18 10 16 16 -1 7 3 12 9 12 8 0 8 5
-1 15 -7 8 -8 15 -3 15 5 0 10 17 11 37 1 20 6 41 11 46 5 5 7 16 4 23 -3 8
-1 14 4 14 5 0 9 10 8 23 -1 12 3 25 9 29 8 5 7 8 -2 8 -9 0 -8 7 4 25 9 14
13 25 9 25 -4 0 -1 7 6 17 8 9 13 18 12 20 -7 8 -2 44 5 39 4 -2 9 5 9 17 2
30 7 48 20 72 5 11 8 26 6 33 -3 6 0 12 6 12 6 0 10 3 9 8 -4 15 14 72 22 72
5 0 7 7 4 15 -4 8 -1 15 6 15 6 0 8 4 5 10 -3 5 2 24 12 42 9 18 18 41 20 51
2 10 9 28 15 40 7 12 11 25 10 30 -1 4 3 7 10 7 6 0 8 3 5 6 -3 4 -1 16 5 28
7 11 11 24 10 29 -1 4 3 7 10 7 6 0 8 3 5 6 -3 4 -1 16 5 28 7 11 12 25 13 29
0 4 7 12 15 17 8 5 11 10 7 10 -4 0 -2 10 5 23 7 12 11 25 10 30 -1 4 3 7 9 7
5 0 7 5 4 10 -3 6 -1 10 5 10 6 0 9 4 6 9 -3 5 1 14 9 21 8 7 12 16 10 21 -3
4 1 11 9 16 8 4 14 12 14 16 -1 15 63 127 73 127 5 0 8 4 6 8 -3 12 36 82 46
82 4 0 5 5 2 10 -3 6 -1 10 4 10 6 0 11 6 11 14 0 8 7 17 16 20 8 3 12 10 9
16 -3 5 -1 10 5 10 6 0 9 4 6 8 -3 5 6 20 20 35 13 14 24 30 24 35 0 6 7 13
16 16 8 3 13 10 9 15 -3 5 4 16 15 24 11 7 17 17 13 20 -3 4 -1 7 5 7 7 0 12
4 12 10 0 10 20 37 53 72 9 10 17 21 17 26 0 4 8 15 18 24 9 9 28 31 42 49 25
32 81 98 112 130 9 9 14 20 11 23 -4 3 -1 6 6 6 15 0 42 26 35 33 -3 2 6 14
20 25 15 11 26 25 26 30 0 6 6 15 13 19 8 4 16 16 20 25 5 14 1 17 -18 16 -14
-1 -25 -5 -25 -9z"/>
<path d="M1215 8048 c-4 -10 -10 -16 -14 -14 -3 2 -7 -12 -9 -32 -1 -20 -6
-38 -10 -42 -4 -3 -9 -16 -10 -30 -2 -14 -9 -31 -14 -38 -6 -7 -8 -15 -4 -19
3 -3 -1 -15 -11 -25 -10 -11 -12 -18 -4 -18 8 0 7 -7 -4 -23 -8 -13 -12 -26
-9 -29 3 -4 -1 -19 -10 -36 -8 -16 -13 -32 -10 -35 3 -3 0 -16 -7 -29 -7 -12
-12 -29 -11 -35 2 -7 -2 -13 -7 -13 -6 0 -8 -7 -5 -15 4 -8 2 -15 -4 -15 -6 0
-8 -9 -5 -20 3 -11 1 -20 -4 -20 -5 0 -9 -8 -10 -17 -1 -19 -10 -58 -13 -58
-1 0 -4 -13 -6 -30 -3 -16 -9 -32 -13 -35 -5 -3 -7 -13 -5 -22 1 -10 -2 -18
-7 -18 -6 0 -8 -4 -4 -9 3 -5 2 -12 -3 -15 -4 -2 -9 -19 -10 -38 -2 -18 -7
-34 -12 -36 -5 -2 -6 -10 -3 -19 4 -11 2 -14 -5 -9 -8 5 -10 2 -6 -8 3 -8 2
-21 -2 -28 -5 -7 -9 -20 -11 -28 -2 -15 -21 -83 -31 -110 -8 -23 -9 -29 -11
-51 0 -11 -5 -18 -10 -15 -4 3 -7 -5 -6 -18 2 -14 -4 -37 -12 -53 -8 -15 -14
-29 -14 -30 1 -2 0 -5 0 -8 -1 -3 -3 -9 -4 -15 -1 -5 -3 -11 -5 -12 -1 -2 -3
-12 -5 -23 -2 -11 -6 -31 -10 -45 -4 -14 -7 -31 -7 -37 -1 -7 -5 -13 -9 -13
-5 0 -6 -6 -3 -14 3 -8 1 -17 -5 -20 -6 -4 -8 -13 -4 -21 3 -8 -1 -15 -8 -15
-7 0 -10 -3 -7 -6 4 -3 2 -20 -3 -37 -17 -55 -21 -71 -22 -89 -1 -10 -5 -18
-10 -18 -4 0 -5 -4 -2 -10 3 -5 2 -10 -4 -10 -5 0 -8 -8 -7 -17 2 -10 -3 -32
-10 -49 -7 -17 -10 -34 -7 -38 4 -3 1 -6 -6 -6 -7 0 -9 -4 -6 -10 3 -5 3 -10
-2 -10 -4 0 -9 -12 -10 -27 -4 -48 -15 -93 -23 -93 -5 0 -6 -9 -3 -20 3 -11 1
-20 -5 -20 -6 0 -11 -8 -11 -17 -1 -35 -13 -83 -21 -78 -4 3 -6 -9 -5 -25 1
-17 0 -30 -4 -30 -4 0 -7 -9 -8 -21 -1 -13 5 -23 18 -26 10 -3 19 -9 19 -14 0
-5 7 -6 15 -3 8 4 21 1 29 -5 7 -6 16 -8 19 -5 3 3 12 2 19 -2 7 -5 22 -10 33
-11 10 -2 22 -7 25 -11 3 -4 21 -8 40 -10 19 -1 37 -7 41 -13 3 -5 10 -9 15
-8 5 2 29 -3 54 -10 25 -7 53 -15 62 -16 10 -2 24 -7 31 -12 6 -4 20 -6 31 -4
12 2 16 -1 11 -10 -5 -8 -4 -10 4 -5 6 4 19 2 28 -6 14 -11 16 -11 9 0 -7 12
-4 12 15 1 13 -7 29 -14 34 -15 6 -1 19 -4 30 -7 11 -2 27 -7 35 -10 8 -4 24
-8 35 -10 11 -1 25 -5 30 -9 13 -7 78 -22 88 -20 4 1 7 -3 7 -9 0 -5 5 -7 10
-4 6 3 16 3 23 -2 6 -4 23 -9 37 -11 13 -2 27 -8 31 -13 3 -5 13 -7 22 -3 10
3 17 1 17 -6 0 -6 5 -8 10 -5 6 4 18 1 27 -7 9 -7 18 -12 20 -10 1 1 4 2 6 1
19 -6 46 -10 60 -10 9 0 17 -4 17 -9 0 -5 7 -7 15 -4 9 4 15 0 15 -7 0 -11 3
-11 10 1 6 10 10 11 10 3 0 -7 11 -13 25 -13 14 0 25 -4 25 -9 0 -6 9 -8 20
-6 11 2 20 -1 20 -6 0 -6 5 -7 10 -4 6 4 16 2 23 -3 13 -11 16 -12 53 -12 14
0 23 -4 20 -8 -4 -7 20 -13 67 -15 9 -1 17 -5 17 -10 0 -4 5 -5 10 -2 6 3 10
2 10 -2 0 -5 8 -9 18 -10 27 -2 51 -8 58 -15 3 -4 12 -4 19 -2 7 3 16 0 20 -5
3 -6 10 -9 15 -6 5 3 11 1 15 -4 3 -6 12 -8 19 -5 8 3 17 1 21 -5 3 -6 19 -11
36 -11 16 0 29 -5 29 -11 0 -5 4 -8 9 -4 5 3 12 1 16 -5 4 -6 11 -8 16 -5 5 4
26 1 47 -6 50 -16 62 -19 66 -16 1 1 10 -4 18 -11 13 -10 17 -10 21 0 4 11 6
10 6 0 1 -7 6 -10 11 -7 6 3 10 1 10 -4 0 -6 16 -11 35 -11 19 0 35 -4 35 -9
0 -6 9 -8 20 -6 11 2 20 0 20 -6 0 -5 8 -1 18 8 11 10 17 21 15 25 -2 3 3 8 9
10 7 3 13 11 14 19 3 44 5 50 13 44 6 -3 10 3 9 12 0 24 8 58 20 80 6 10 10
21 11 26 3 28 25 97 31 97 3 0 6 10 5 23 -1 12 4 36 11 53 7 17 15 44 18 60 3
16 10 30 15 32 5 2 7 12 4 23 -3 11 2 29 13 41 11 12 13 18 7 14 -7 -4 -13 -2
-13 3 0 6 5 11 11 11 5 0 8 4 4 9 -3 5 -1 12 4 16 6 3 8 12 4 20 -3 8 -1 15 4
15 8 0 12 15 15 58 1 6 5 12 10 12 5 0 6 5 3 10 -4 6 -1 17 5 25 7 8 10 15 7
15 -4 0 0 18 8 40 8 22 12 40 9 40 -2 0 1 10 8 23 7 12 13 30 14 40 1 9 2 18
4 20 1 1 3 9 5 17 2 8 8 29 13 47 6 17 8 34 4 37 -3 3 0 6 6 6 6 0 9 7 6 15
-4 8 -1 15 6 15 6 0 9 4 5 9 -3 5 -1 12 4 15 5 3 7 15 4 26 -3 12 0 20 6 20 7
0 9 5 6 10 -3 6 0 10 7 10 9 0 9 3 -2 10 -8 5 -10 10 -5 10 10 0 14 14 17 58
1 6 5 12 10 12 5 0 7 3 5 8 -3 4 0 18 5 32 6 14 12 34 14 45 8 47 11 54 24 71
9 11 10 15 3 10 -7 -4 -13 -2 -13 3 0 6 5 11 10 11 6 0 9 3 8 8 -1 4 4 27 11
52 7 25 15 52 16 60 2 8 8 30 14 48 5 17 7 32 4 32 -3 0 1 7 8 17 8 9 13 18
12 20 -2 1 -3 4 -2 6 0 1 2 9 4 17 2 8 11 42 20 75 9 33 17 66 18 73 0 6 3 12
7 12 3 0 6 8 7 18 1 9 4 26 6 37 3 11 6 30 6 43 1 13 4 21 9 19 4 -3 8 10 9
28 2 29 -2 35 -30 46 -18 6 -36 13 -42 13 -5 1 -17 5 -25 8 -18 7 -102 32
-112 34 -5 1 -10 3 -13 4 -3 1 -9 4 -15 5 -5 1 -13 4 -17 5 -5 2 -12 4 -18 5
-5 2 -12 4 -15 5 -9 3 -45 10 -65 13 -11 1 -22 5 -25 8 -3 4 -16 9 -30 10 -14
2 -27 7 -30 11 -4 4 -23 9 -43 10 -20 2 -37 6 -37 9 0 8 -34 19 -75 25 -16 2
-37 7 -45 11 -8 3 -20 7 -26 8 -6 2 -38 11 -70 21 -75 22 -70 21 -95 23 -11 0
-18 5 -15 9 3 5 -7 9 -22 10 -36 1 -60 7 -68 15 -4 4 -18 7 -30 7 -13 0 -25 4
-29 10 -3 5 -12 7 -20 3 -8 -3 -15 0 -15 7 0 6 -5 8 -10 5 -6 -4 -16 -2 -23 3
-7 5 -22 8 -34 7 -13 -1 -23 2 -23 7 0 5 -4 6 -10 3 -5 -3 -10 -1 -10 5 0 7
-8 9 -20 5 -12 -4 -20 -2 -20 5 0 6 -4 8 -10 5 -5 -3 -16 -3 -22 2 -7 4 -17 8
-23 10 -5 1 -21 5 -35 8 -14 4 -31 7 -37 7 -7 1 -13 5 -13 9 0 4 -9 5 -20 2
-12 -3 -20 0 -20 7 0 6 -6 10 -12 7 -7 -2 -27 1 -45 8 -17 8 -34 11 -37 7 -3
-3 -6 -1 -6 4 0 6 -11 11 -25 12 -47 3 -55 5 -55 14 0 5 -4 6 -10 3 -5 -3 -16
-3 -22 2 -7 4 -19 8 -27 10 -8 1 -26 5 -40 9 -14 4 -29 7 -33 6 -5 -1 -8 2 -8
6 0 4 -8 8 -17 9 -31 2 -75 14 -97 25 -12 6 -22 10 -24 9 -5 -6 -122 23 -122
31 0 4 -13 6 -30 4 -16 -2 -31 2 -33 8 -3 6 -8 3 -12 -6z"/>
<path d="M3315 6860 c-3 -5 -1 -10 6 -10 8 0 7 -5 -3 -17 -9 -10 -13 -24 -10
-32 2 -8 1 -11 -4 -8 -5 3 -10 -6 -11 -19 -5 -52 -6 -59 -14 -69 -7 -10 -19
-56 -21 -82 -1 -7 -4 -13 -7 -13 -4 0 -8 -11 -9 -25 -3 -37 -6 -49 -15 -56 -4
-3 -10 -23 -13 -44 -2 -21 -8 -43 -11 -49 -4 -6 -8 -15 -10 -21 -1 -5 -5 -21
-8 -35 -4 -14 -7 -31 -7 -37 -1 -7 -6 -13 -11 -13 -5 0 -7 -9 -4 -20 3 -10 -1
-24 -9 -31 -8 -6 -12 -15 -9 -19 2 -4 -1 -24 -7 -46 -6 -21 -11 -42 -10 -46 1
-5 -2 -8 -8 -8 -5 0 -7 -6 -4 -14 3 -8 1 -17 -5 -20 -6 -4 -8 -13 -5 -20 3 -8
0 -17 -5 -21 -6 -3 -9 -11 -5 -16 3 -6 -2 -19 -12 -30 -10 -11 -12 -19 -5 -19
9 0 9 -5 1 -20 -6 -11 -7 -20 -3 -20 4 0 2 -4 -5 -9 -7 -4 -15 -25 -18 -46 -2
-21 -8 -43 -11 -49 -4 -6 -8 -15 -9 -21 -1 -5 -7 -30 -14 -55 -7 -25 -12 -47
-12 -50 0 -3 -4 -11 -10 -18 -6 -7 -8 -15 -4 -19 3 -3 -1 -15 -11 -25 -11 -13
-12 -18 -3 -18 9 0 10 -3 1 -14 -7 -8 -14 -22 -16 -32 -2 -11 -9 -37 -14 -59
-6 -22 -11 -47 -11 -55 0 -19 32 -18 80 2 21 9 37 11 41 5 4 -5 12 -1 18 9 8
14 11 15 11 4 0 -9 3 -11 8 -4 5 8 98 38 155 50 4 1 9 3 12 4 3 1 10 4 15 5 6
1 11 3 13 5 3 3 39 10 65 12 12 1 22 6 22 11 0 5 6 7 14 4 7 -3 18 -1 23 4 9
9 52 21 81 22 6 0 12 5 12 10 0 5 11 7 25 5 13 -3 22 -1 19 3 -3 5 6 9 20 9
14 0 26 4 26 10 0 5 3 9 8 9 34 -6 43 2 38 34 -2 17 -5 33 -6 35 -2 1 -3 5 -5
10 -1 4 -7 20 -13 35 -7 16 -12 34 -12 42 0 8 -5 17 -10 20 -6 4 -8 11 -5 16
4 5 2 9 -3 9 -6 0 -8 9 -5 20 3 12 0 20 -6 20 -7 0 -9 5 -6 10 3 6 1 10 -6 10
-7 0 -10 3 -7 6 4 3 0 21 -8 40 -8 19 -12 40 -8 46 5 7 2 8 -6 3 -10 -6 -12
-4 -7 8 3 10 3 17 -2 17 -4 0 -8 7 -9 15 -1 8 -3 22 -4 30 -1 8 -4 15 -8 15
-5 0 -9 18 -12 58 -1 6 -5 12 -9 12 -5 0 -6 7 -3 15 4 8 1 15 -6 15 -7 0 -10
8 -7 20 3 11 1 23 -5 26 -5 3 -7 12 -4 19 3 8 1 15 -4 17 -4 2 -11 17 -13 33
-3 17 -10 45 -16 64 -6 19 -9 37 -6 39 3 3 0 11 -5 17 -6 7 -11 24 -12 39 -1
14 -6 26 -10 26 -4 0 -5 7 -2 15 4 8 1 22 -6 30 -10 12 -10 15 0 15 9 0 9 4 2
13 -9 11 -28 108 -25 135 0 6 -3 12 -7 12 -4 0 -7 16 -6 35 1 19 -2 35 -7 35
-4 0 -7 6 -6 13 4 34 -11 51 -26 27z"/>
<path d="M710 5743 c0 -7 -7 -10 -16 -6 -20 8 -36 -17 -22 -34 6 -7 7 -13 3
-13 -4 0 -1 -8 6 -17 12 -14 12 -16 0 -8 -11 6 -12 5 -5 -6 10 -17 15 -36 18
-66 0 -11 4 -19 9 -16 6 3 11 -31 5 -39 -1 -2 4 -12 10 -24 6 -11 13 -32 16
-45 3 -13 8 -35 11 -49 4 -14 7 -31 7 -37 1 -7 6 -13 11 -13 5 0 7 -9 4 -20
-3 -11 -1 -23 5 -26 5 -3 7 -12 4 -20 -3 -8 -1 -14 4 -14 6 0 10 -11 10 -24 0
-14 5 -28 11 -32 6 -3 9 -15 6 -25 -3 -11 0 -25 7 -32 6 -6 11 -21 11 -32 0
-11 4 -26 9 -32 5 -7 5 -13 0 -13 -5 0 -4 -4 3 -8 7 -4 13 -24 15 -44 1 -20 6
-34 10 -32 7 4 13 -35 9 -58 0 -5 4 -8 10 -8 6 0 9 -9 6 -20 -3 -11 -1 -20 5
-20 6 0 8 -7 5 -15 -4 -8 -2 -17 3 -20 6 -4 10 -15 10 -26 0 -10 4 -19 10 -19
5 0 7 -7 4 -15 -4 -8 -1 -22 6 -30 7 -8 10 -15 7 -15 -4 0 0 -18 8 -40 8 -22
15 -42 15 -45 0 -3 2 -10 4 -17 2 -7 9 -31 14 -53 6 -22 15 -51 19 -65 4 -14
6 -28 5 -32 -1 -5 3 -8 9 -8 6 0 9 -7 6 -15 -4 -8 -2 -17 4 -20 5 -4 7 -10 4
-15 -3 -5 -1 -11 4 -15 6 -3 8 -12 4 -20 -3 -8 0 -15 7 -15 7 0 10 -8 7 -20
-3 -11 -1 -20 4 -20 5 0 8 -3 8 -7 -1 -5 0 -10 1 -13 2 -5 5 -18 14 -55 2 -11
10 -33 16 -50 7 -16 14 -43 16 -59 2 -16 9 -35 15 -42 6 -7 8 -17 5 -23 -4 -5
0 -15 7 -23 8 -7 13 -21 11 -31 -1 -9 2 -17 8 -17 6 0 8 -9 5 -20 -3 -10 -1
-20 3 -22 5 -2 10 -16 12 -33 2 -16 9 -36 16 -43 7 -8 10 -18 6 -23 -3 -6 0
-16 6 -24 7 -8 9 -15 5 -15 -4 0 -3 -6 3 -12 5 -7 13 -27 16 -45 6 -23 15 -34
38 -42 39 -14 38 -14 38 4 0 8 9 15 20 15 11 0 20 7 20 16 0 8 4 13 8 10 5 -3
15 6 22 19 7 13 16 23 19 22 3 -2 16 7 28 20 12 13 20 23 18 23 -3 0 14 17 37
38 23 20 75 72 116 114 41 43 79 75 84 72 5 -3 7 -1 6 4 -4 12 224 242 234
236 5 -3 7 -1 6 3 -4 13 144 163 154 157 5 -3 7 -1 6 3 -3 9 37 51 120 126 23
21 42 43 42 49 0 6 3 8 6 5 4 -4 20 10 35 30 16 20 29 32 29 28 0 -4 11 4 25
19 14 15 25 32 25 37 0 6 5 7 10 4 6 -3 10 -2 10 3 0 5 12 21 28 35 60 58 132
125 132 122 0 -1 23 19 51 46 28 27 56 49 61 49 5 0 8 6 5 13 -2 6 0 22 4 35
6 16 6 21 -2 16 -7 -4 -10 -1 -7 7 6 17 -52 59 -81 59 -12 0 -21 5 -21 10 0 6
-9 10 -19 10 -11 0 -32 5 -48 12 -15 6 -34 10 -40 9 -7 -1 -13 4 -13 10 0 7
-3 10 -6 6 -3 -3 -18 -1 -33 5 -24 9 -46 15 -78 22 -7 1 -16 5 -19 9 -4 4 -19
7 -34 7 -14 0 -30 4 -35 9 -6 6 -21 12 -35 15 -14 3 -36 8 -50 11 -14 3 -32 8
-40 10 -8 2 -16 4 -17 5 -2 2 -7 3 -12 4 -5 0 -12 4 -16 8 -4 4 -13 4 -20 2
-7 -3 -16 -1 -20 5 -3 6 -19 11 -35 11 -16 0 -35 6 -42 13 -7 6 -17 12 -23 12
-35 2 -104 18 -101 24 3 4 -10 8 -27 9 -17 2 -36 7 -41 12 -4 4 -15 6 -22 3
-8 -3 -14 0 -14 6 0 6 -7 8 -15 5 -8 -4 -22 -1 -30 6 -8 6 -24 13 -37 15 -13
2 -34 6 -48 10 -14 4 -31 7 -37 7 -7 1 -13 6 -13 11 0 5 -7 7 -15 4 -8 -4 -17
-2 -20 3 -3 5 -13 6 -22 3 -9 -4 -14 -2 -10 3 3 6 -5 11 -19 12 -45 3 -54 5
-54 12 0 4 -6 7 -12 8 -7 0 -20 3 -28 5 -8 2 -34 8 -57 12 -24 4 -40 11 -38
16 3 4 -3 6 -15 4 -11 -2 -22 0 -25 5 -3 4 -13 7 -23 6 -9 -2 -20 1 -23 5 -3
5 -17 10 -32 11 -15 1 -27 6 -27 11 0 5 -6 7 -14 4 -7 -3 -23 1 -34 8 -10 8
-21 12 -23 10 -3 -2 -38 5 -78 16 -41 10 -76 17 -79 14 -2 -2 -11 3 -19 11 -8
8 -19 12 -24 9 -5 -4 -15 -3 -21 2 -7 4 -22 8 -33 10 -48 5 -60 9 -67 18 -5 6
-8 5 -8 -2z"/>
<path d="M9910 4213 c-14 -3 -27 -8 -30 -12 -11 -14 -86 -66 -92 -63 -5 1 -8
-2 -8 -8 0 -5 -7 -10 -16 -10 -8 0 -12 -4 -9 -10 3 -6 -4 -10 -16 -10 -12 0
-19 -3 -16 -7 7 -6 -147 -113 -163 -113 -6 0 -10 -4 -10 -10 0 -5 -5 -10 -11
-10 -6 0 -17 -7 -26 -15 -8 -8 -19 -13 -24 -10 -5 4 -9 1 -9 -4 0 -6 -6 -11
-14 -11 -8 0 -17 -7 -20 -16 -3 -8 -10 -13 -15 -10 -5 3 -14 -1 -21 -9 -7 -8
-19 -15 -26 -15 -8 0 -14 -5 -14 -11 0 -5 -4 -7 -10 -4 -5 3 -10 2 -10 -4 0
-9 -40 -27 -49 -22 -2 2 -7 -3 -12 -10 -4 -7 -16 -14 -26 -15 -9 -2 -19 -8
-21 -13 -2 -6 -12 -11 -23 -11 -10 0 -19 -5 -19 -11 0 -5 -4 -7 -10 -4 -5 3
-10 1 -10 -5 0 -6 -4 -8 -10 -5 -5 3 -10 1 -10 -5 0 -6 -4 -8 -10 -5 -5 3 -10
1 -10 -5 0 -6 -4 -8 -10 -5 -5 3 -10 1 -10 -6 0 -7 -3 -9 -7 -6 -3 4 -15 -1
-26 -10 -15 -13 -19 -14 -13 -3 5 9 2 8 -7 -2 -8 -10 -17 -15 -20 -11 -4 3 -7
1 -7 -6 0 -7 -4 -10 -9 -6 -5 3 -12 1 -16 -5 -4 -6 -11 -8 -16 -5 -5 4 -9 1
-9 -4 0 -6 -9 -11 -19 -11 -11 0 -21 -5 -23 -10 -2 -6 -17 -11 -35 -13 -17 -1
-31 -6 -30 -12 1 -5 -8 -10 -20 -9 -13 0 -23 -3 -23 -8 0 -4 -7 -8 -15 -8 -8
0 -15 -4 -15 -10 0 -5 -9 -10 -20 -10 -12 0 -34 -7 -50 -15 -17 -9 -30 -13
-30 -11 0 3 -20 -3 -45 -14 -25 -11 -49 -19 -53 -18 -4 1 -17 -3 -28 -9 -12
-7 -36 -15 -55 -18 -18 -3 -36 -10 -39 -14 -3 -5 -13 -7 -22 -5 -10 1 -18 -1
-18 -5 0 -4 -6 -8 -12 -9 -7 0 -26 -4 -43 -7 -16 -4 -36 -8 -42 -8 -7 0 -13
-4 -13 -8 0 -4 -9 -6 -20 -4 -11 2 -20 0 -20 -6 0 -5 -3 -8 -7 -7 -7 1 -53 -6
-113 -17 -8 -2 -27 -8 -42 -14 -21 -8 -28 -8 -28 2 0 8 -3 9 -8 1 -7 -11 -17
-14 -72 -17 -16 -1 -30 -6 -30 -10 0 -5 -4 -6 -9 -3 -15 10 -18 -17 -5 -43 7
-14 11 -28 8 -33 -3 -4 -1 -8 3 -8 5 0 10 -11 11 -26 3 -42 20 -66 40 -55 9 4
25 7 35 6 9 -2 15 0 12 5 -2 4 14 11 38 15 23 4 49 10 57 12 8 3 23 5 33 6 9
1 17 4 17 8 0 4 8 6 18 5 9 -2 19 1 22 5 4 5 23 10 43 11 20 2 37 6 37 11 0 4
8 7 18 7 9 0 36 7 60 15 24 9 54 16 68 17 13 1 24 5 24 9 0 4 11 6 25 5 13 -2
22 1 19 5 -3 5 4 10 15 10 21 2 39 5 44 8 1 2 12 4 24 7 44 8 48 9 53 16 3 4
20 8 38 10 18 1 32 5 32 9 0 3 10 5 23 5 12 -1 27 2 33 6 7 5 23 11 35 14 13
3 29 6 34 7 6 2 16 6 23 10 6 5 16 6 21 2 5 -3 12 -1 16 5 3 5 17 10 31 10 13
0 24 6 24 13 0 9 3 8 9 -2 6 -9 11 -10 15 -2 4 6 12 9 17 6 5 -4 9 -1 9 6 0 6
8 9 20 6 11 -3 20 -1 20 4 0 5 3 8 8 7 4 -1 27 5 52 12 25 8 52 15 60 16 8 1
26 6 40 11 14 6 33 9 43 7 9 -1 15 1 12 6 -3 5 14 11 37 15 24 4 50 11 59 16
8 4 26 9 40 11 13 2 30 7 37 11 6 5 17 5 22 2 6 -3 10 -1 10 5 0 7 7 10 15 6
8 -3 15 -2 15 3 0 4 6 8 13 9 6 0 26 4 42 7 17 4 36 8 43 8 6 0 12 4 12 9 0 5
8 8 18 7 9 -1 31 4 47 10 17 7 40 14 52 14 13 1 23 5 23 8 0 6 10 8 54 11 14
1 23 5 20 9 -2 4 15 10 37 14 23 4 58 14 78 22 20 9 38 14 41 12 10 -8 11 51
0 71 -8 15 -8 20 2 20 10 0 10 2 0 9 -8 5 -15 20 -15 35 -1 14 -6 26 -11 26
-4 0 -6 7 -3 15 4 8 2 17 -3 20 -5 3 -7 12 -3 20 3 8 0 15 -7 15 -7 0 -10 8
-7 20 3 11 1 20 -4 20 -5 0 -8 3 -7 8 1 6 -8 48 -18 80 -2 7 -4 14 -4 17 0 3
-6 20 -14 39 -8 19 -12 37 -8 40 3 3 3 5 1 5 -2 -1 -15 -4 -29 -6z"/>
<path d="M5759 3492 c-1 -4 -1 -10 0 -14 0 -5 -3 -8 -9 -8 -5 0 -10 -6 -10
-14 0 -8 -5 -27 -12 -43 -6 -15 -12 -34 -14 -42 -2 -8 -6 -26 -10 -40 -4 -14
-7 -29 -6 -33 1 -5 -3 -8 -9 -8 -5 0 -7 -5 -4 -10 4 -6 1 -18 -7 -27 -7 -9
-12 -18 -10 -20 1 -1 2 -4 1 -5 0 -2 -3 -12 -5 -23 -3 -11 -6 -24 -8 -30 -17
-60 -28 -101 -26 -104 1 -2 -4 -8 -12 -12 -10 -7 -10 -9 0 -9 9 0 7 -8 -5 -27
-10 -15 -17 -28 -15 -30 6 -6 -10 -73 -19 -78 -4 -3 -6 -12 -2 -20 3 -8 0 -15
-7 -15 -6 0 -9 -4 -6 -9 5 -7 -20 -102 -42 -161 -3 -8 -7 -28 -9 -45 -3 -16
-8 -32 -11 -35 -7 -5 -10 -14 -15 -48 -1 -9 -6 -23 -10 -29 -5 -7 -6 -13 -3
-13 3 0 -1 -15 -9 -34 -8 -18 -11 -36 -8 -40 4 -3 1 -6 -5 -6 -6 0 -9 -6 -6
-14 3 -8 1 -17 -5 -20 -6 -4 -8 -13 -4 -21 3 -8 0 -15 -7 -15 -6 0 -8 -4 -5
-10 3 -5 3 -15 -1 -22 -4 -7 -9 -24 -10 -37 -2 -14 -7 -27 -12 -29 -5 -1 -7
-14 -4 -29 3 -15 1 -23 -4 -20 -6 3 -10 -2 -11 -11 -3 -44 -8 -62 -16 -62 -4
0 -5 -4 -2 -10 3 -5 2 -10 -3 -10 -6 0 -8 -9 -5 -20 3 -12 0 -20 -7 -20 -10 0
-10 -3 0 -15 9 -11 9 -15 1 -15 -7 0 -9 -4 -6 -10 3 -5 1 -10 -6 -10 -7 0 -10
-3 -6 -6 3 -3 0 -25 -8 -49 -7 -24 -10 -46 -7 -49 3 -4 1 -6 -4 -6 -9 0 -13
-14 -16 -57 -1 -7 -5 -13 -10 -13 -5 0 -6 -5 -3 -10 4 -6 1 -18 -7 -27 -7 -9
-12 -18 -10 -20 6 -8 1 -54 -6 -49 -4 2 -8 -9 -9 -26 0 -17 -6 -34 -13 -38 -9
-6 -9 -9 -1 -15 8 -4 9 -11 2 -18 -9 -12 -26 -68 -35 -117 -2 -14 -5 -25 -6
-25 -1 0 -3 -10 -6 -22 -3 -19 6 -30 19 -21 1 1 13 -5 27 -12 14 -8 31 -13 38
-12 6 2 12 -1 12 -5 0 -5 11 -10 26 -11 14 -1 33 -6 43 -12 10 -5 21 -6 25 -3
3 3 6 1 6 -6 0 -7 5 -9 10 -6 6 3 16 3 23 -2 6 -4 17 -9 22 -10 32 -8 43 -11
70 -23 17 -7 45 -14 64 -15 18 -2 36 -7 40 -12 3 -4 11 -8 16 -9 12 -1 123
-33 145 -41 8 -4 21 -5 28 -4 6 1 12 -2 12 -6 0 -5 8 -9 18 -10 26 -2 45 -8
68 -21 12 -6 24 -9 27 -5 3 3 14 2 24 -2 10 -5 21 -7 26 -7 4 1 7 -3 7 -9 0
-5 5 -7 10 -4 6 4 17 1 25 -5 8 -6 19 -9 24 -6 5 4 12 2 16 -3 3 -6 13 -7 22
-4 12 5 14 3 8 -6 -5 -10 -2 -11 14 -6 12 4 21 2 21 -4 0 -6 7 -8 15 -5 8 4
22 1 30 -6 8 -7 15 -10 15 -6 0 4 14 0 30 -9 20 -10 30 -12 30 -4 0 8 4 8 13
1 11 -9 103 -39 146 -47 9 -2 18 -4 21 -5 3 -1 8 -2 13 -1 4 0 7 -4 7 -10 0
-6 9 -8 20 -4 13 4 20 2 20 -6 0 -7 3 -10 6 -6 3 3 23 -1 45 -8 22 -8 41 -15
44 -15 3 0 10 -2 17 -4 32 -10 74 -19 81 -18 4 1 7 -2 7 -7 0 -5 9 -7 20 -4
12 3 20 0 20 -7 0 -7 7 -10 15 -7 8 4 17 2 20 -3 3 -5 12 -7 20 -3 8 3 15 0
15 -6 0 -6 7 -8 15 -5 8 4 15 1 15 -6 0 -6 4 -8 10 -5 5 3 18 2 27 -4 10 -5
32 -11 48 -12 17 -2 32 -7 35 -11 3 -4 17 -8 30 -10 14 -2 31 -7 38 -11 6 -5
12 -6 12 -3 0 3 12 1 27 -5 37 -14 147 -39 140 -32 -3 3 5 15 18 28 14 12 22
25 18 28 -3 4 -2 12 4 19 5 7 8 23 7 35 0 13 3 23 7 23 5 0 8 3 8 8 -1 4 0 9
1 12 3 9 10 44 12 62 1 10 5 18 8 18 3 0 7 12 8 27 1 15 9 38 18 51 9 13 11
21 5 18 -6 -4 -11 -2 -11 3 0 6 5 11 11 11 5 0 8 4 4 9 -3 5 -2 12 3 15 4 2 9
19 10 37 1 18 7 38 12 44 5 7 7 15 3 18 -3 4 -2 7 3 7 5 0 10 8 11 18 0 9 4
26 7 37 3 11 10 40 16 64 6 24 14 49 17 55 4 6 8 17 9 26 1 8 5 26 9 40 4 14
7 31 7 38 1 6 5 12 10 12 5 0 6 5 3 10 -3 6 -3 16 2 23 4 6 9 23 11 37 2 13 7
27 11 30 5 3 7 13 5 23 -1 9 1 17 5 17 6 0 10 17 13 58 1 6 4 12 8 12 5 0 9
18 12 58 1 6 4 12 8 12 3 0 7 9 8 20 4 44 6 50 15 50 6 0 8 3 4 6 -3 3 2 29
10 57 9 29 16 58 16 65 0 6 5 12 10 12 5 0 7 7 3 15 -3 8 -1 15 3 15 5 0 7 10
3 22 -4 16 -2 19 8 13 10 -6 12 -4 7 9 -4 10 -4 23 0 29 4 7 8 17 10 22 1 6 6
24 11 42 6 17 8 34 4 37 -3 3 -1 6 5 6 6 0 10 10 9 23 -1 12 4 31 11 43 7 11
10 24 6 27 -3 4 -1 7 6 7 7 0 10 4 7 9 -4 5 -1 22 5 38 14 37 21 64 21 85 -1
10 4 20 9 23 5 4 7 11 4 16 -4 5 -3 9 2 9 4 0 9 14 10 31 1 17 8 37 14 45 9
11 8 14 -2 14 -11 1 -11 3 1 13 8 7 16 23 17 37 4 39 11 94 13 100 10 25 -6
63 -22 53 -5 -2 -14 -1 -20 4 -22 13 -82 33 -104 33 -11 0 -24 4 -30 9 -5 5
-22 11 -39 13 -16 2 -36 9 -43 16 -8 7 -18 10 -23 6 -6 -3 -15 -1 -22 4 -7 6
-15 11 -19 11 -5 1 -9 1 -10 2 -8 2 -37 9 -62 14 -16 3 -37 10 -47 15 -10 6
-29 10 -43 10 -14 0 -26 4 -26 8 0 4 -11 9 -26 10 -14 1 -33 6 -43 12 -10 5
-21 6 -25 3 -3 -3 -6 -2 -6 4 0 6 -11 9 -25 8 -14 -2 -25 0 -25 5 0 4 -19 11
-42 15 -41 8 -48 9 -65 15 -5 1 -11 2 -15 1 -5 0 -8 3 -8 8 0 6 -8 8 -17 7
-10 -2 -29 1 -43 7 -29 12 -50 18 -67 19 -7 1 -13 5 -13 10 0 5 -4 7 -9 4 -5
-4 -22 -1 -38 5 -15 7 -35 13 -43 15 -8 1 -25 5 -37 8 -35 9 -67 17 -80 20 -7
1 -16 5 -19 9 -4 4 -18 7 -31 7 -13 0 -23 3 -23 8 0 4 -13 7 -29 8 -16 1 -37
5 -47 9 -26 11 -31 12 -104 30 -36 9 -70 21 -76 26 -8 7 -14 6 -17 -3 -4 -11
-6 -10 -6 0 -1 7 -5 10 -11 7 -5 -3 -10 -2 -10 2 0 5 -12 10 -26 11 -15 1 -33
7 -40 13 -11 9 -14 8 -14 -1 0 -9 -4 -9 -12 -3 -14 11 -68 27 -80 25 -5 -1 -8
2 -8 8 0 5 -7 7 -15 4 -8 -3 -20 -2 -27 2 -7 5 -17 9 -23 11 -5 1 -21 5 -35 8
-14 4 -33 7 -42 7 -10 -1 -18 3 -18 8 0 5 -9 7 -20 5 -11 -2 -20 0 -20 6 0 5
-3 8 -7 8 -5 -1 -10 -1 -13 0 -19 7 -90 10 -91 3z"/>
<path d="M5430 3478 c-14 -6 -32 -11 -40 -12 -8 -1 -34 -8 -57 -14 -47 -14
-43 -3 -45 -129 0 -21 -5 -44 -11 -50 -6 -9 -6 -13 3 -13 9 0 10 -3 1 -13 -8
-10 -7 -17 1 -25 7 -7 8 -12 3 -12 -6 0 -11 -28 -13 -62 -2 -34 -7 -65 -11
-68 -5 -3 -7 -13 -5 -22 1 -10 -1 -18 -5 -18 -4 0 -7 -8 -8 -17 -2 -35 -13
-67 -25 -75 -7 -4 -10 -8 -6 -8 10 0 -23 -83 -36 -92 -6 -4 -7 -8 -3 -8 4 0 2
-10 -5 -22 -7 -13 -11 -26 -10 -30 1 -5 -2 -8 -7 -8 -8 0 -24 -37 -22 -52 1
-5 -4 -8 -10 -8 -5 0 -7 -4 -4 -10 3 -5 2 -10 -4 -10 -6 0 -18 -16 -27 -35 -9
-19 -20 -35 -25 -35 -5 0 -9 -6 -9 -13 0 -7 -18 -29 -39 -49 -22 -20 -38 -38
-36 -40 2 -1 -12 -14 -31 -28 -18 -14 -34 -29 -34 -34 0 -5 -29 -38 -65 -74
-36 -35 -65 -69 -65 -75 0 -6 -3 -8 -6 -4 -7 7 -54 -41 -54 -56 0 -6 -3 -7 -6
-4 -4 4 -20 -10 -35 -30 -16 -20 -29 -33 -29 -30 0 3 -11 -5 -25 -19 -14 -14
-25 -29 -25 -35 0 -6 -4 -7 -10 -4 -5 3 -10 2 -10 -4 0 -6 -46 -58 -103 -116
-57 -58 -101 -107 -99 -110 3 -3 0 -5 -6 -5 -12 0 -192 -180 -192 -192 0 -5
-3 -7 -7 -5 -10 5 -43 -30 -36 -37 4 -3 2 -6 -3 -6 -15 0 -64 -46 -57 -54 3
-3 2 -6 -4 -6 -13 0 -181 -168 -175 -175 3 -3 -1 -5 -9 -5 -8 0 -23 -13 -34
-29 -10 -16 -22 -29 -25 -28 -8 2 -97 -92 -92 -98 3 -3 -1 -5 -9 -5 -8 -1 -27
-18 -44 -39 -16 -21 -32 -38 -35 -37 -3 1 -15 -8 -26 -20 -14 -14 -18 -27 -13
-36 7 -10 9 -10 9 0 0 7 4 10 10 7 5 -3 18 -1 28 4 22 12 69 23 95 23 9 -1 17
3 17 9 0 5 3 8 8 8 4 -1 9 0 12 1 11 4 46 11 67 13 13 1 23 6 23 11 0 4 7 6
15 2 8 -3 15 -2 15 3 0 7 7 9 50 13 11 1 20 5 20 8 0 4 6 7 13 8 22 2 42 7 55
16 7 4 16 5 19 2 3 -3 12 -1 20 5 7 6 13 8 13 4 0 -4 7 -2 15 5 8 7 15 10 15
7 0 -3 27 4 61 14 33 10 65 16 70 13 5 -3 12 1 15 9 3 9 14 12 30 9 14 -2 24
0 24 7 0 6 3 10 8 10 4 -1 9 -1 12 1 3 1 16 3 29 6 14 2 44 11 69 19 24 9 48
13 53 10 5 -4 9 -2 9 3 0 5 12 12 28 15 15 3 52 12 82 21 68 20 71 21 90 29 8
4 24 8 35 10 11 1 26 6 33 10 6 5 17 5 22 2 6 -3 10 -1 10 4 0 6 3 10 8 9 14
-3 82 20 95 34 8 7 12 19 9 26 -2 6 1 12 8 12 6 0 8 5 5 10 -3 6 -2 10 3 10 5
0 7 11 4 25 -2 15 0 25 7 25 7 0 10 4 6 10 -3 5 -1 17 4 27 8 14 31 87 35 113
1 3 5 11 9 18 5 6 6 16 2 21 -3 5 -1 12 4 15 4 3 12 20 16 38 4 18 9 35 10 38
1 3 5 19 9 35 4 17 12 41 17 55 5 14 11 36 13 50 3 14 5 26 7 28 1 1 3 7 4 12
1 6 4 12 5 15 1 3 3 9 4 14 0 5 4 12 8 16 4 4 4 14 1 23 -5 11 -3 13 7 7 9 -5
11 -4 6 3 -4 7 -4 18 1 25 4 6 8 20 9 30 1 9 3 19 4 22 1 3 4 10 5 15 1 6 4
11 5 13 2 2 8 35 12 65 1 6 6 12 11 12 6 0 7 3 4 6 -3 4 -2 15 3 25 6 10 11
29 12 43 1 15 6 26 11 26 4 0 6 4 3 9 -4 5 0 12 6 14 10 4 9 6 -1 6 -10 1 -11
4 -3 14 6 7 13 26 16 43 3 17 12 49 20 71 8 23 12 44 9 47 -4 3 -1 6 6 6 7 0
10 4 6 9 -3 5 -1 12 4 15 5 3 7 16 3 28 -3 11 -1 19 4 16 8 -6 12 10 17 65 1
9 5 17 9 17 4 0 7 3 6 8 -1 4 4 27 12 52 7 25 13 51 13 58 0 6 4 12 9 12 5 0
6 5 2 11 -3 6 0 15 7 20 11 7 11 9 1 9 -8 0 -10 5 -5 13 14 22 32 81 27 89 -3
4 0 8 5 8 6 0 10 3 9 8 -3 13 14 77 26 91 9 12 8 13 -4 6 -13 -8 -13 -7 -1 8
7 9 10 17 6 17 -4 0 -2 7 5 15 7 8 9 15 4 15 -4 0 -3 5 3 11 6 6 9 18 6 25 -3
8 1 14 8 14 7 0 9 3 6 7 -4 3 -1 13 6 21 10 13 9 14 -1 8 -11 -7 -12 -4 -3 12
6 11 11 30 11 41 0 12 3 21 8 21 10 0 13 60 4 75 -5 9 -14 10 -32 3z"/>
<path d="M9974 3469 c-3 -6 -11 -8 -17 -6 -7 2 -20 -2 -29 -11 -13 -11 -18
-12 -18 -2 0 10 -3 10 -15 0 -8 -7 -15 -9 -15 -5 0 4 -6 3 -13 -3 -7 -6 -26
-13 -42 -16 -17 -2 -32 -5 -35 -7 -3 -1 -9 -3 -15 -4 -5 -2 -12 -4 -15 -5 -13
-5 -47 -12 -62 -13 -10 -1 -18 -4 -18 -7 0 -3 -12 -7 -27 -8 -15 -1 -30 -8
-35 -15 -4 -6 -8 -8 -8 -3 0 5 -8 2 -17 -5 -9 -8 -14 -9 -10 -2 5 8 0 9 -20 2
-96 -32 -157 -48 -164 -43 -5 3 -9 1 -9 -4 0 -5 -6 -9 -12 -10 -26 -3 -63 -10
-65 -12 -2 -2 -7 -4 -13 -5 -5 -1 -11 -3 -12 -5 -2 -1 -10 -3 -18 -5 -8 -2
-38 -10 -67 -18 -28 -8 -54 -12 -57 -9 -3 3 -6 1 -6 -4 0 -5 -8 -11 -17 -12
-32 -3 -48 -7 -60 -15 -7 -5 -13 -6 -13 -2 0 3 -12 -1 -27 -8 -16 -7 -35 -13
-43 -12 -8 1 -21 -3 -27 -8 -7 -5 -13 -7 -13 -4 0 3 -16 -1 -35 -9 -19 -8 -35
-11 -35 -8 0 4 -7 1 -15 -6 -8 -6 -19 -9 -24 -6 -5 4 -13 1 -16 -5 -4 -5 -13
-8 -21 -5 -8 3 -14 0 -14 -6 0 -6 -3 -8 -7 -5 -3 4 -12 2 -20 -4 -10 -9 -13
-8 -13 2 0 12 -2 12 -9 1 -5 -8 -20 -15 -35 -15 -14 -1 -26 -6 -26 -11 0 -4
-7 -6 -15 -2 -8 3 -15 2 -15 -3 0 -4 -6 -8 -12 -9 -39 -2 -142 -34 -150 -47
-5 -6 -8 -5 -8 4 0 10 -3 11 -13 2 -8 -6 -17 -8 -20 -4 -4 3 -7 1 -7 -6 0 -7
-7 -11 -15 -8 -8 4 -17 2 -20 -3 -3 -4 -16 -7 -30 -6 -13 2 -22 -1 -19 -5 3
-5 -4 -10 -15 -10 -23 -2 -28 -3 -51 -11 -34 -13 -136 -43 -150 -44 -32 -3
-91 -34 -85 -44 4 -6 -1 -22 -9 -35 -9 -14 -13 -25 -9 -25 5 0 1 -5 -7 -10 -9
-6 -10 -10 -3 -10 7 0 5 -12 -7 -37 -10 -20 -16 -43 -13 -50 3 -7 0 -13 -7
-13 -6 0 -8 -5 -5 -10 4 -6 2 -16 -3 -23 -5 -7 -10 -20 -11 -29 -3 -41 -5 -48
-14 -48 -6 0 -7 -3 -4 -6 3 -4 2 -15 -3 -25 -6 -10 -11 -29 -12 -43 -1 -15 -6
-26 -10 -26 -4 0 -5 -9 -3 -20 2 -11 0 -22 -6 -25 -5 -4 -9 -17 -9 -31 0 -13
-4 -24 -8 -24 -4 0 -8 -8 -9 -17 -1 -19 -10 -58 -13 -58 -2 0 -11 -38 -12 -52
-1 -7 -5 -13 -10 -13 -5 0 -7 -4 -4 -9 4 -5 1 -22 -5 -38 -12 -31 -20 -62 -21
-80 -1 -7 -4 -13 -7 -13 -4 0 -8 -11 -9 -26 -1 -14 -7 -34 -12 -45 -6 -11 -8
-24 -5 -29 3 -6 1 -10 -5 -10 -7 0 -10 -6 -7 -12 2 -7 0 -22 -6 -33 -5 -10
-11 -26 -12 -35 0 -8 -7 -35 -15 -60 -7 -25 -13 -48 -12 -52 1 -5 -2 -8 -7 -8
-5 0 -7 -9 -4 -20 3 -12 0 -20 -8 -20 -7 0 -10 -3 -7 -6 3 -3 -2 -32 -12 -64
-10 -32 -15 -61 -12 -64 3 -3 1 -6 -4 -6 -5 0 -11 -11 -12 -26 -1 -14 -6 -33
-12 -43 -5 -10 -6 -21 -3 -25 3 -3 1 -6 -5 -6 -6 0 -9 -7 -6 -15 4 -8 2 -21
-4 -28 -6 -6 -12 -26 -15 -43 -3 -17 -9 -40 -14 -50 -5 -11 -9 -26 -8 -34 1
-8 -2 -19 -6 -25 -7 -11 -41 -132 -42 -152 0 -7 -4 -13 -9 -13 -5 0 -7 -4 -3
-9 3 -5 1 -12 -4 -15 -5 -3 -7 -16 -3 -28 3 -12 1 -19 -4 -15 -5 3 -10 -2 -11
-11 -2 -31 -11 -81 -17 -90 -11 -19 -16 -71 -6 -77 5 -3 10 -2 10 2 0 5 12 8
28 7 15 -1 32 1 37 5 6 3 15 6 20 8 6 1 37 9 70 18 33 9 66 17 73 17 6 1 12 5
12 10 0 4 5 8 11 8 5 0 7 -6 3 -12 -5 -8 -1 -7 10 2 17 13 24 16 71 24 11 2
33 8 48 15 16 6 33 8 39 5 7 -4 8 -2 4 4 -6 11 27 18 57 13 4 0 7 3 7 7 0 7
19 12 63 15 9 1 17 4 17 7 0 3 27 12 60 19 33 8 60 19 60 25 0 6 4 5 9 -3 5
-8 11 -9 15 -3 5 8 62 25 91 26 6 1 13 5 16 10 4 5 21 9 38 10 17 0 31 5 31 9
0 5 6 7 12 5 7 -3 24 1 37 8 14 7 28 11 33 8 4 -3 8 -1 8 4 0 9 7 10 55 13 14
1 25 6 25 11 0 6 7 8 15 5 8 -4 17 -2 21 4 3 6 13 8 21 5 8 -3 11 -2 8 4 -3 5
3 9 12 9 10 0 25 1 33 4 8 2 29 8 45 12 17 4 33 13 37 19 6 8 8 8 8 -1 0 -8 9
-7 30 3 16 9 34 13 40 9 5 -3 10 -1 10 5 0 6 4 9 9 5 5 -3 13 0 16 6 4 5 13 8
21 5 7 -3 16 -1 19 3 4 7 59 22 75 20 3 0 22 7 43 16 20 8 37 13 37 11 0 -3
16 2 35 10 20 8 40 12 45 9 6 -4 10 -1 10 4 0 6 3 10 8 9 8 -1 57 10 82 19 8
3 23 8 32 9 9 2 36 10 59 18 24 8 46 13 51 10 4 -3 8 0 8 6 0 6 5 8 10 5 6 -3
10 -2 10 4 0 6 6 8 14 5 9 -4 20 6 31 25 8 17 15 33 15 36 0 3 6 21 15 40 8
20 10 33 4 30 -5 -4 -1 9 10 28 11 19 17 38 14 41 -3 3 -1 12 5 19 7 8 9 17 5
20 -3 4 -1 13 5 20 7 8 9 16 6 20 -3 3 3 18 13 33 13 21 14 26 3 19 -13 -8
-13 -7 -1 8 7 9 10 17 6 17 -4 0 -2 7 5 15 7 8 9 15 4 15 -4 0 -3 5 3 11 6 6
9 18 6 25 -3 8 0 14 7 14 6 0 8 4 5 10 -3 5 -2 10 3 10 5 0 8 11 7 25 -2 14 2
25 8 25 5 0 7 3 4 7 -4 3 -1 13 6 21 9 13 9 14 0 8 -18 -10 -16 -1 3 18 10 10
11 16 4 16 -8 0 -7 8 4 25 9 14 14 30 11 35 -3 5 -1 11 5 15 6 4 8 10 5 15 -3
5 -1 11 4 15 6 3 8 12 4 20 -3 8 1 15 8 15 7 0 10 3 7 6 -3 3 2 32 12 64 10
32 15 61 12 64 -3 3 -1 6 4 6 5 0 11 11 12 25 3 37 6 49 15 56 4 3 10 23 13
44 2 21 8 43 11 49 4 6 8 16 10 21 1 6 5 21 8 35 4 14 7 31 7 38 1 6 5 12 8
12 4 0 8 12 8 26 0 15 6 30 13 35 12 7 12 9 0 9 -10 0 -11 3 -2 13 6 8 8 17 4
20 -3 4 -1 7 6 7 7 0 10 4 7 8 -3 5 1 20 8 34 10 19 11 29 3 37 -8 8 -8 11 2
11 7 0 9 5 6 10 -3 6 -2 10 2 10 5 0 10 8 11 18 2 20 10 56 12 60 2 1 4 7 5
12 1 6 3 11 5 13 1 1 4 11 6 22 3 11 6 25 7 30 1 6 6 16 10 23 5 6 6 12 2 12
-3 0 1 16 10 35 10 25 11 34 2 28 -9 -5 -9 -3 0 8 7 9 14 24 16 35 2 10 7 26
10 34 4 8 9 26 11 40 3 14 10 43 16 65 6 22 12 46 12 53 1 6 6 12 11 12 5 0 6
7 3 16 -4 9 -1 23 5 30 6 8 9 14 6 14 -3 0 -2 13 3 29 7 24 5 30 -11 34 -10 3
-22 1 -25 -4z"/>
</g>
</svg>
